<svg width="416" height="150" viewBox="0 0 416 150" fill="none" xmlns="http://www.w3.org/2000/svg">
<path d="M0 2C0 0.895429 0.895431 0 2 0H414C415.105 0 416 0.895431 416 2V150H0V2Z" fill="#3559C7"/>
<path d="M138.275 27.46H131.455V30.26H136.895V32.92H131.455V38H128.015V24.8H138.275V27.46ZM143.924 38.2C142.818 38.2 141.858 37.9933 141.044 37.58C140.244 37.1667 139.624 36.5733 139.184 35.8C138.744 35.0267 138.524 34.0933 138.524 33C138.524 31.9067 138.744 30.9733 139.184 30.2C139.624 29.4267 140.238 28.8333 141.024 28.42C141.824 28.0067 142.738 27.8 143.764 27.8C144.818 27.8 145.711 28.0067 146.444 28.42C147.191 28.82 147.758 29.38 148.144 30.1C148.531 30.8067 148.724 31.62 148.724 32.54C148.724 32.78 148.718 33.02 148.704 33.26C148.691 33.5 148.671 33.7 148.644 33.86H140.724V32.04H147.144L145.524 32.66C145.524 31.86 145.378 31.2467 145.084 30.82C144.804 30.3933 144.364 30.18 143.764 30.18C143.338 30.18 142.971 30.28 142.664 30.48C142.371 30.68 142.144 30.9933 141.984 31.42C141.838 31.8467 141.764 32.3933 141.764 33.06C141.764 33.7133 141.851 34.2467 142.024 34.66C142.198 35.06 142.444 35.3533 142.764 35.54C143.084 35.7133 143.471 35.8 143.924 35.8C144.431 35.8 144.831 35.7 145.124 35.5C145.431 35.3 145.658 35.02 145.804 34.66L148.524 35.56C148.338 36.1333 148.011 36.62 147.544 37.02C147.091 37.4067 146.544 37.7 145.904 37.9C145.278 38.1 144.618 38.2 143.924 38.2ZM156.206 31.66C156.206 31.1933 156.073 30.8267 155.806 30.56C155.553 30.28 155.206 30.14 154.766 30.14C154.326 30.14 153.946 30.2533 153.626 30.48C153.32 30.6933 153.106 31.08 152.986 31.64L150.106 30.96C150.293 30 150.786 29.2333 151.586 28.66C152.386 28.0867 153.513 27.8 154.966 27.8C155.94 27.8 156.766 27.9467 157.446 28.24C158.14 28.52 158.666 28.9467 159.026 29.52C159.4 30.08 159.586 30.7733 159.586 31.6V35.26C159.586 35.78 159.82 36.04 160.286 36.04C160.526 36.04 160.72 36.0133 160.866 35.96L160.666 37.9C160.266 38.0867 159.78 38.18 159.206 38.18C158.686 38.18 158.226 38.1 157.826 37.94C157.426 37.7667 157.113 37.5133 156.886 37.18C156.66 36.8333 156.546 36.4 156.546 35.88V35.76L156.926 35.62C156.926 36.1933 156.753 36.6733 156.406 37.06C156.073 37.4467 155.633 37.7333 155.086 37.92C154.553 38.1067 153.993 38.2 153.406 38.2C152.726 38.2 152.133 38.0933 151.626 37.88C151.12 37.6667 150.726 37.36 150.446 36.96C150.18 36.5467 150.046 36.04 150.046 35.44C150.046 34.72 150.26 34.1267 150.686 33.66C151.126 33.18 151.813 32.8467 152.746 32.66L156.526 31.88L156.506 33.68L154.586 34.08C154.186 34.16 153.886 34.28 153.686 34.44C153.5 34.5867 153.406 34.8133 153.406 35.12C153.406 35.4133 153.513 35.6333 153.726 35.78C153.94 35.9267 154.193 36 154.486 36C154.713 36 154.926 35.9667 155.126 35.9C155.34 35.8333 155.526 35.7333 155.686 35.6C155.846 35.4533 155.973 35.2733 156.066 35.06C156.16 34.8467 156.206 34.5933 156.206 34.3V31.66ZM165.998 24.82V34.44C165.998 34.92 166.111 35.2667 166.338 35.48C166.578 35.68 166.904 35.78 167.318 35.78C167.638 35.78 167.911 35.7467 168.138 35.68C168.378 35.6 168.591 35.4867 168.778 35.34L169.138 37.44C168.804 37.68 168.384 37.8667 167.878 38C167.371 38.1333 166.851 38.2 166.318 38.2C165.558 38.2 164.898 38.0933 164.338 37.88C163.791 37.6667 163.364 37.3267 163.058 36.86C162.764 36.3933 162.611 35.7733 162.598 35V25.76L165.998 24.82ZM168.978 28V30.42H160.878V28H168.978ZM173.928 38.2C173.248 38.2 172.648 38.0867 172.128 37.86C171.621 37.62 171.221 37.24 170.928 36.72C170.635 36.2 170.488 35.52 170.488 34.68V28H173.888V33.88C173.888 34.52 174.015 34.9667 174.268 35.22C174.521 35.4733 174.881 35.6 175.348 35.6C175.588 35.6 175.815 35.56 176.028 35.48C176.241 35.3867 176.428 35.2533 176.588 35.08C176.748 34.8933 176.868 34.66 176.948 34.38C177.041 34.0867 177.088 33.7467 177.088 33.36V28H180.488V38H177.448L177.348 36.12C177.028 36.8267 176.581 37.3533 176.008 37.7C175.435 38.0333 174.741 38.2 173.928 38.2ZM182.931 38V28H185.931L186.071 30.16C186.324 29.4133 186.698 28.8333 187.191 28.42C187.698 28.0067 188.338 27.8 189.111 27.8C189.364 27.8 189.578 27.82 189.751 27.86C189.938 27.9 190.084 27.9533 190.191 28.02L189.851 30.82C189.718 30.7667 189.544 30.7267 189.331 30.7C189.131 30.66 188.884 30.64 188.591 30.64C188.191 30.64 187.818 30.7267 187.471 30.9C187.124 31.0733 186.844 31.3333 186.631 31.68C186.431 32.0133 186.331 32.44 186.331 32.96V38H182.931ZM196.288 38.2C195.181 38.2 194.221 37.9933 193.408 37.58C192.608 37.1667 191.988 36.5733 191.548 35.8C191.108 35.0267 190.888 34.0933 190.888 33C190.888 31.9067 191.108 30.9733 191.548 30.2C191.988 29.4267 192.601 28.8333 193.388 28.42C194.188 28.0067 195.101 27.8 196.128 27.8C197.181 27.8 198.074 28.0067 198.808 28.42C199.554 28.82 200.121 29.38 200.508 30.1C200.894 30.8067 201.088 31.62 201.088 32.54C201.088 32.78 201.081 33.02 201.068 33.26C201.054 33.5 201.034 33.7 201.008 33.86H193.088V32.04H199.508L197.888 32.66C197.888 31.86 197.741 31.2467 197.448 30.82C197.168 30.3933 196.728 30.18 196.128 30.18C195.701 30.18 195.334 30.28 195.028 30.48C194.734 30.68 194.508 30.9933 194.348 31.42C194.201 31.8467 194.128 32.3933 194.128 33.06C194.128 33.7133 194.214 34.2467 194.388 34.66C194.561 35.06 194.808 35.3533 195.128 35.54C195.448 35.7133 195.834 35.8 196.288 35.8C196.794 35.8 197.194 35.7 197.488 35.5C197.794 35.3 198.021 35.02 198.168 34.66L200.888 35.56C200.701 36.1333 200.374 36.62 199.908 37.02C199.454 37.4067 198.908 37.7 198.268 37.9C197.641 38.1 196.981 38.2 196.288 38.2ZM215.012 24.8C216.092 24.8 217.012 24.9733 217.772 25.32C218.532 25.6667 219.112 26.1667 219.512 26.82C219.912 27.4733 220.112 28.2667 220.112 29.2C220.112 30.1333 219.912 30.9267 219.512 31.58C219.112 32.2333 218.532 32.7333 217.772 33.08C217.012 33.4267 216.092 33.6 215.012 33.6H212.392V38H208.952V24.8H215.012ZM214.472 31.02C215.192 31.02 215.732 30.8733 216.092 30.58C216.466 30.2733 216.652 29.8133 216.652 29.2C216.652 28.5867 216.466 28.1333 216.092 27.84C215.732 27.5333 215.192 27.38 214.472 27.38H212.392V31.02H214.472ZM222.072 38V28H225.072L225.212 30.16C225.465 29.4133 225.838 28.8333 226.332 28.42C226.838 28.0067 227.478 27.8 228.252 27.8C228.505 27.8 228.718 27.82 228.892 27.86C229.078 27.9 229.225 27.9533 229.332 28.02L228.992 30.82C228.858 30.7667 228.685 30.7267 228.472 30.7C228.272 30.66 228.025 30.64 227.732 30.64C227.332 30.64 226.958 30.7267 226.612 30.9C226.265 31.0733 225.985 31.3333 225.772 31.68C225.572 32.0133 225.472 32.44 225.472 32.96V38H222.072ZM235.308 27.8C236.361 27.8 237.281 28.0067 238.068 28.42C238.868 28.82 239.488 29.4133 239.928 30.2C240.381 30.9733 240.608 31.9067 240.608 33C240.608 34.0933 240.381 35.0333 239.928 35.82C239.488 36.5933 238.868 37.1867 238.068 37.6C237.281 38 236.361 38.2 235.308 38.2C234.281 38.2 233.368 38 232.568 37.6C231.768 37.1867 231.141 36.5933 230.688 35.82C230.248 35.0333 230.028 34.0933 230.028 33C230.028 31.9067 230.248 30.9733 230.688 30.2C231.141 29.4133 231.768 28.82 232.568 28.42C233.368 28.0067 234.281 27.8 235.308 27.8ZM235.308 30.22C234.921 30.22 234.588 30.3133 234.308 30.5C234.028 30.6867 233.815 30.9867 233.668 31.4C233.521 31.8133 233.448 32.3467 233.448 33C233.448 33.6533 233.521 34.1867 233.668 34.6C233.815 35 234.028 35.3 234.308 35.5C234.588 35.6867 234.921 35.78 235.308 35.78C235.708 35.78 236.048 35.6867 236.328 35.5C236.608 35.3 236.821 35 236.968 34.6C237.115 34.1867 237.188 33.6533 237.188 33C237.188 32.3467 237.115 31.8133 236.968 31.4C236.821 30.9867 236.608 30.6867 236.328 30.5C236.048 30.3133 235.708 30.22 235.308 30.22ZM244.221 26.84C243.527 26.84 243.021 26.7133 242.701 26.46C242.394 26.1933 242.241 25.78 242.241 25.22C242.241 24.6467 242.394 24.2333 242.701 23.98C243.021 23.7133 243.527 23.58 244.221 23.58C244.901 23.58 245.401 23.7133 245.721 23.98C246.041 24.2333 246.201 24.6467 246.201 25.22C246.201 25.78 246.041 26.1933 245.721 26.46C245.401 26.7133 244.901 26.84 244.221 26.84ZM245.921 28V38.56C245.921 39.4667 245.761 40.1933 245.441 40.74C245.134 41.2867 244.694 41.68 244.121 41.92C243.547 42.1733 242.854 42.3 242.041 42.3C241.507 42.3 241.021 42.24 240.581 42.12C240.141 42.0133 239.754 41.86 239.421 41.66L239.901 39.46C240.047 39.5667 240.227 39.6533 240.441 39.72C240.654 39.8 240.901 39.84 241.181 39.84C241.581 39.84 241.901 39.72 242.141 39.48C242.394 39.2533 242.521 38.8467 242.521 38.26V28H245.921ZM253.221 38.2C252.114 38.2 251.154 37.9933 250.341 37.58C249.541 37.1667 248.921 36.5733 248.481 35.8C248.041 35.0267 247.821 34.0933 247.821 33C247.821 31.9067 248.041 30.9733 248.481 30.2C248.921 29.4267 249.534 28.8333 250.321 28.42C251.121 28.0067 252.034 27.8 253.061 27.8C254.114 27.8 255.008 28.0067 255.741 28.42C256.488 28.82 257.054 29.38 257.441 30.1C257.828 30.8067 258.021 31.62 258.021 32.54C258.021 32.78 258.014 33.02 258.001 33.26C257.988 33.5 257.968 33.7 257.941 33.86H250.021V32.04H256.441L254.821 32.66C254.821 31.86 254.674 31.2467 254.381 30.82C254.101 30.3933 253.661 30.18 253.061 30.18C252.634 30.18 252.268 30.28 251.961 30.48C251.668 30.68 251.441 30.9933 251.281 31.42C251.134 31.8467 251.061 32.3933 251.061 33.06C251.061 33.7133 251.148 34.2467 251.321 34.66C251.494 35.06 251.741 35.3533 252.061 35.54C252.381 35.7133 252.768 35.8 253.221 35.8C253.728 35.8 254.128 35.7 254.421 35.5C254.728 35.3 254.954 35.02 255.101 34.66L257.821 35.56C257.634 36.1333 257.308 36.62 256.841 37.02C256.388 37.4067 255.841 37.7 255.201 37.9C254.574 38.1 253.914 38.2 253.221 38.2ZM264.663 27.8C265.676 27.8 266.516 27.9467 267.183 28.24C267.863 28.52 268.39 28.9 268.763 29.38C269.15 29.8467 269.39 30.3533 269.483 30.9L266.343 31.94C266.25 31.3667 266.076 30.94 265.823 30.66C265.583 30.3667 265.23 30.22 264.763 30.22C264.336 30.22 263.976 30.32 263.683 30.52C263.403 30.7067 263.19 31.0133 263.043 31.44C262.896 31.8533 262.823 32.3867 262.823 33.04C262.823 33.6933 262.903 34.2267 263.063 34.64C263.223 35.04 263.45 35.3333 263.743 35.52C264.036 35.6933 264.383 35.78 264.783 35.78C265.116 35.78 265.39 35.72 265.603 35.6C265.83 35.4667 266.016 35.28 266.163 35.04C266.31 34.8 266.403 34.5067 266.443 34.16L269.503 35.14C269.41 35.7267 269.156 36.2533 268.743 36.72C268.343 37.1733 267.81 37.5333 267.143 37.8C266.476 38.0667 265.696 38.2 264.803 38.2C263.71 38.2 262.756 38 261.943 37.6C261.13 37.1867 260.503 36.5933 260.063 35.82C259.623 35.0333 259.403 34.0933 259.403 33C259.403 31.9067 259.623 30.9733 260.063 30.2C260.503 29.4133 261.116 28.82 261.903 28.42C262.703 28.0067 263.623 27.8 264.663 27.8ZM275.451 24.82V34.44C275.451 34.92 275.564 35.2667 275.791 35.48C276.031 35.68 276.357 35.78 276.771 35.78C277.091 35.78 277.364 35.7467 277.591 35.68C277.831 35.6 278.044 35.4867 278.231 35.34L278.591 37.44C278.257 37.68 277.837 37.8667 277.331 38C276.824 38.1333 276.304 38.2 275.771 38.2C275.011 38.2 274.351 38.0933 273.791 37.88C273.244 37.6667 272.817 37.3267 272.511 36.86C272.217 36.3933 272.064 35.7733 272.051 35V25.76L275.451 24.82ZM278.431 28V30.42H270.331V28H278.431ZM284.201 38.2C283.201 38.2 282.268 38.04 281.401 37.72C280.548 37.3867 279.841 36.9133 279.281 36.3L280.881 34.42C281.215 34.8467 281.655 35.2067 282.201 35.5C282.761 35.78 283.381 35.92 284.061 35.92C284.475 35.92 284.815 35.86 285.081 35.74C285.348 35.62 285.481 35.4333 285.481 35.18C285.481 34.9933 285.415 34.8467 285.281 34.74C285.148 34.62 284.881 34.52 284.481 34.44L283.081 34.16C281.828 33.9067 280.935 33.5333 280.401 33.04C279.881 32.5333 279.621 31.8733 279.621 31.06C279.621 30.5133 279.788 29.9933 280.121 29.5C280.455 28.9933 280.968 28.5867 281.661 28.28C282.355 27.96 283.241 27.8 284.321 27.8C285.335 27.8 286.228 27.9467 287.001 28.24C287.775 28.5333 288.388 28.96 288.841 29.52L287.221 31.36C286.901 30.96 286.488 30.6467 285.981 30.42C285.475 30.1933 284.968 30.08 284.461 30.08C284.141 30.08 283.868 30.1133 283.641 30.18C283.428 30.2333 283.268 30.3133 283.161 30.42C283.055 30.5267 283.001 30.66 283.001 30.82C283.001 30.9933 283.081 31.1467 283.241 31.28C283.415 31.4 283.728 31.5067 284.181 31.6L286.001 31.96C287.028 32.1467 287.768 32.4867 288.221 32.98C288.675 33.4733 288.901 34.0667 288.901 34.76C288.901 35.4133 288.728 36 288.381 36.52C288.035 37.04 287.515 37.4533 286.821 37.76C286.128 38.0533 285.255 38.2 284.201 38.2Z" fill="white"/>
<path d="M71.3061 69.16V70.96H65.7861V85H63.8661V70.96H58.3461V69.16H71.3061ZM73.8258 85V67.48H75.7458V74.8C76.1618 74.08 76.7138 73.56 77.4018 73.24C78.0898 72.92 78.8418 72.76 79.6578 72.76C80.5218 72.76 81.3058 72.928 82.0098 73.264C82.7138 73.584 83.2738 74.08 83.6898 74.752C84.1218 75.424 84.3378 76.28 84.3378 77.32V85H82.4178V77.992C82.4178 76.664 82.1298 75.744 81.5538 75.232C80.9938 74.704 80.2978 74.44 79.4658 74.44C78.8898 74.44 78.3138 74.576 77.7378 74.848C77.1618 75.12 76.6818 75.568 76.2978 76.192C75.9298 76.8 75.7458 77.616 75.7458 78.64V85H73.8258ZM93.7011 85.24C92.5651 85.24 91.5491 84.992 90.6531 84.496C89.7731 84 89.0851 83.288 88.5891 82.36C88.0931 81.416 87.8451 80.296 87.8451 79C87.8451 77.704 88.0931 76.592 88.5891 75.664C89.0851 74.72 89.7651 74 90.6291 73.504C91.4931 73.008 92.4771 72.76 93.5811 72.76C94.7011 72.76 95.6531 73 96.4371 73.48C97.2371 73.96 97.8451 74.616 98.2611 75.448C98.6771 76.264 98.8851 77.184 98.8851 78.208C98.8851 78.48 98.8771 78.728 98.8611 78.952C98.8451 79.176 98.8211 79.376 98.7891 79.552H89.0931V77.848H97.9491L96.9651 78.04C96.9651 76.888 96.6451 76 96.0051 75.376C95.3811 74.752 94.5571 74.44 93.5331 74.44C92.7491 74.44 92.0691 74.624 91.4931 74.992C90.9331 75.344 90.4931 75.864 90.1731 76.552C89.8691 77.224 89.7171 78.04 89.7171 79C89.7171 79.944 89.8771 80.76 90.1971 81.448C90.5171 82.136 90.9651 82.664 91.5411 83.032C92.1331 83.384 92.8371 83.56 93.6531 83.56C94.5331 83.56 95.2451 83.392 95.7891 83.056C96.3491 82.72 96.7971 82.264 97.1331 81.688L98.6451 82.576C98.3411 83.12 97.9491 83.592 97.4691 83.992C97.0051 84.392 96.4531 84.704 95.8131 84.928C95.1891 85.136 94.4851 85.24 93.7011 85.24ZM123.508 69.16V85H121.132L114.508 74.392L112.828 71.416H112.804L112.9 73.816V85H111.076V69.16H113.452L120.052 79.72L121.756 82.768H121.78L121.684 80.344V69.16H123.508ZM135.209 77.248C135.209 76.352 134.969 75.664 134.489 75.184C134.009 74.688 133.329 74.44 132.449 74.44C131.617 74.44 130.913 74.624 130.337 74.992C129.761 75.344 129.337 75.92 129.065 76.72L127.505 75.76C127.825 74.864 128.417 74.144 129.281 73.6C130.145 73.04 131.217 72.76 132.497 72.76C133.361 72.76 134.145 72.912 134.849 73.216C135.553 73.504 136.105 73.952 136.505 74.56C136.921 75.152 137.129 75.92 137.129 76.864V82.672C137.129 83.248 137.433 83.536 138.041 83.536C138.345 83.536 138.641 83.496 138.929 83.416L138.833 84.928C138.513 85.088 138.097 85.168 137.585 85.168C137.121 85.168 136.705 85.08 136.337 84.904C135.969 84.728 135.681 84.464 135.473 84.112C135.265 83.744 135.161 83.288 135.161 82.744V82.504L135.641 82.576C135.449 83.2 135.121 83.712 134.657 84.112C134.193 84.496 133.673 84.784 133.097 84.976C132.521 85.152 131.953 85.24 131.393 85.24C130.689 85.24 130.033 85.12 129.425 84.88C128.817 84.64 128.329 84.28 127.961 83.8C127.609 83.304 127.433 82.696 127.433 81.976C127.433 81.08 127.729 80.344 128.321 79.768C128.929 79.176 129.769 78.776 130.841 78.568L135.593 77.632V79.216L131.729 80.008C130.945 80.168 130.361 80.392 129.977 80.68C129.593 80.968 129.401 81.368 129.401 81.88C129.401 82.376 129.593 82.784 129.977 83.104C130.377 83.408 130.937 83.56 131.657 83.56C132.121 83.56 132.561 83.504 132.977 83.392C133.409 83.264 133.793 83.08 134.129 82.84C134.465 82.584 134.729 82.272 134.921 81.904C135.113 81.52 135.209 81.072 135.209 80.56V77.248ZM144.158 69.592V81.688C144.158 82.28 144.326 82.72 144.662 83.008C144.998 83.296 145.43 83.44 145.958 83.44C146.422 83.44 146.822 83.36 147.158 83.2C147.494 83.04 147.798 82.824 148.07 82.552L148.742 84.16C148.374 84.496 147.934 84.76 147.422 84.952C146.926 85.144 146.35 85.24 145.694 85.24C145.086 85.24 144.518 85.136 143.99 84.928C143.462 84.704 143.038 84.36 142.718 83.896C142.414 83.416 142.254 82.792 142.238 82.024V70.12L144.158 69.592ZM148.526 73V74.656H139.838V73H148.526ZM152.34 70.696C151.908 70.696 151.556 70.568 151.284 70.312C151.028 70.04 150.9 69.688 150.9 69.256C150.9 68.824 151.028 68.48 151.284 68.224C151.556 67.952 151.908 67.816 152.34 67.816C152.772 67.816 153.116 67.952 153.372 68.224C153.644 68.48 153.78 68.824 153.78 69.256C153.78 69.688 153.644 70.04 153.372 70.312C153.116 70.568 152.772 70.696 152.34 70.696ZM153.3 73V85H151.38V73H153.3ZM162.723 72.76C163.859 72.76 164.859 73.008 165.723 73.504C166.603 74 167.291 74.72 167.787 75.664C168.283 76.592 168.531 77.704 168.531 79C168.531 80.296 168.283 81.416 167.787 82.36C167.291 83.288 166.603 84 165.723 84.496C164.859 84.992 163.859 85.24 162.723 85.24C161.603 85.24 160.603 84.992 159.723 84.496C158.843 84 158.155 83.288 157.659 82.36C157.163 81.416 156.915 80.296 156.915 79C156.915 77.704 157.163 76.592 157.659 75.664C158.155 74.72 158.843 74 159.723 73.504C160.603 73.008 161.603 72.76 162.723 72.76ZM162.723 74.416C161.907 74.416 161.211 74.6 160.635 74.968C160.059 75.336 159.611 75.864 159.291 76.552C158.987 77.224 158.835 78.04 158.835 79C158.835 79.944 158.987 80.76 159.291 81.448C159.611 82.136 160.059 82.664 160.635 83.032C161.211 83.4 161.907 83.584 162.723 83.584C163.539 83.584 164.235 83.4 164.811 83.032C165.387 82.664 165.827 82.136 166.131 81.448C166.451 80.76 166.611 79.944 166.611 79C166.611 78.04 166.451 77.224 166.131 76.552C165.827 75.864 165.387 75.336 164.811 74.968C164.235 74.6 163.539 74.416 162.723 74.416ZM172.146 85V73H173.826L173.994 75.688L173.682 75.424C173.938 74.784 174.282 74.272 174.714 73.888C175.146 73.488 175.642 73.2 176.202 73.024C176.778 72.848 177.37 72.76 177.978 72.76C178.842 72.76 179.626 72.928 180.33 73.264C181.034 73.584 181.594 74.08 182.01 74.752C182.442 75.424 182.658 76.28 182.658 77.32V85H180.738V77.992C180.738 76.664 180.45 75.744 179.874 75.232C179.314 74.704 178.618 74.44 177.786 74.44C177.21 74.44 176.634 74.576 176.058 74.848C175.482 75.12 175.002 75.56 174.618 76.168C174.25 76.776 174.066 77.592 174.066 78.616V85H172.146ZM194.013 77.248C194.013 76.352 193.773 75.664 193.293 75.184C192.813 74.688 192.133 74.44 191.253 74.44C190.421 74.44 189.717 74.624 189.141 74.992C188.565 75.344 188.141 75.92 187.869 76.72L186.309 75.76C186.629 74.864 187.221 74.144 188.085 73.6C188.949 73.04 190.021 72.76 191.301 72.76C192.165 72.76 192.949 72.912 193.653 73.216C194.357 73.504 194.909 73.952 195.309 74.56C195.725 75.152 195.933 75.92 195.933 76.864V82.672C195.933 83.248 196.237 83.536 196.845 83.536C197.149 83.536 197.445 83.496 197.733 83.416L197.637 84.928C197.317 85.088 196.901 85.168 196.389 85.168C195.925 85.168 195.509 85.08 195.141 84.904C194.773 84.728 194.485 84.464 194.277 84.112C194.069 83.744 193.965 83.288 193.965 82.744V82.504L194.445 82.576C194.253 83.2 193.925 83.712 193.461 84.112C192.997 84.496 192.477 84.784 191.901 84.976C191.325 85.152 190.757 85.24 190.197 85.24C189.493 85.24 188.837 85.12 188.229 84.88C187.621 84.64 187.133 84.28 186.765 83.8C186.413 83.304 186.237 82.696 186.237 81.976C186.237 81.08 186.533 80.344 187.125 79.768C187.733 79.176 188.573 78.776 189.645 78.568L194.397 77.632V79.216L190.533 80.008C189.749 80.168 189.165 80.392 188.781 80.68C188.397 80.968 188.205 81.368 188.205 81.88C188.205 82.376 188.397 82.784 188.781 83.104C189.181 83.408 189.741 83.56 190.461 83.56C190.925 83.56 191.365 83.504 191.781 83.392C192.213 83.264 192.597 83.08 192.933 82.84C193.269 82.584 193.533 82.272 193.725 81.904C193.917 81.52 194.013 81.072 194.013 80.56V77.248ZM202.423 67.48V81.952C202.423 82.56 202.535 82.984 202.759 83.224C202.983 83.448 203.343 83.56 203.839 83.56C204.159 83.56 204.423 83.536 204.631 83.488C204.839 83.44 205.119 83.352 205.471 83.224L205.159 84.904C204.903 85.016 204.623 85.096 204.319 85.144C204.015 85.208 203.703 85.24 203.383 85.24C202.407 85.24 201.679 84.976 201.199 84.448C200.735 83.92 200.503 83.112 200.503 82.024V67.48H202.423ZM227.751 69.16V79.096C227.751 81.128 227.215 82.664 226.143 83.704C225.071 84.728 223.535 85.24 221.535 85.24C219.551 85.24 218.015 84.728 216.927 83.704C215.855 82.664 215.319 81.128 215.319 79.096V69.16H217.239V78.616C217.239 80.264 217.583 81.48 218.271 82.264C218.975 83.048 220.063 83.44 221.535 83.44C223.007 83.44 224.087 83.048 224.775 82.264C225.479 81.48 225.831 80.264 225.831 78.616V69.16H227.751ZM232.146 85V73H233.826L233.994 75.688L233.682 75.424C233.938 74.784 234.282 74.272 234.714 73.888C235.146 73.488 235.642 73.2 236.202 73.024C236.778 72.848 237.37 72.76 237.978 72.76C238.842 72.76 239.626 72.928 240.33 73.264C241.034 73.584 241.594 74.08 242.01 74.752C242.442 75.424 242.658 76.28 242.658 77.32V85H240.738V77.992C240.738 76.664 240.45 75.744 239.874 75.232C239.314 74.704 238.618 74.44 237.786 74.44C237.21 74.44 236.634 74.576 236.058 74.848C235.482 75.12 235.002 75.56 234.618 76.168C234.25 76.776 234.066 77.592 234.066 78.616V85H232.146ZM247.965 70.696C247.533 70.696 247.181 70.568 246.909 70.312C246.653 70.04 246.525 69.688 246.525 69.256C246.525 68.824 246.653 68.48 246.909 68.224C247.181 67.952 247.533 67.816 247.965 67.816C248.397 67.816 248.741 67.952 248.997 68.224C249.269 68.48 249.405 68.824 249.405 69.256C249.405 69.688 249.269 70.04 248.997 70.312C248.741 70.568 248.397 70.696 247.965 70.696ZM248.925 73V85H247.005V73H248.925ZM261.324 73H263.34L258.348 85H256.428L251.436 73H253.62L257.412 83.056L261.324 73ZM270.865 85.24C269.729 85.24 268.713 84.992 267.817 84.496C266.937 84 266.249 83.288 265.753 82.36C265.257 81.416 265.009 80.296 265.009 79C265.009 77.704 265.257 76.592 265.753 75.664C266.249 74.72 266.929 74 267.793 73.504C268.657 73.008 269.641 72.76 270.745 72.76C271.865 72.76 272.817 73 273.601 73.48C274.401 73.96 275.009 74.616 275.425 75.448C275.841 76.264 276.049 77.184 276.049 78.208C276.049 78.48 276.041 78.728 276.025 78.952C276.009 79.176 275.985 79.376 275.953 79.552H266.257V77.848H275.113L274.129 78.04C274.129 76.888 273.809 76 273.169 75.376C272.545 74.752 271.721 74.44 270.697 74.44C269.913 74.44 269.233 74.624 268.657 74.992C268.097 75.344 267.657 75.864 267.337 76.552C267.033 77.224 266.881 78.04 266.881 79C266.881 79.944 267.041 80.76 267.361 81.448C267.681 82.136 268.129 82.664 268.705 83.032C269.297 83.384 270.001 83.56 270.817 83.56C271.697 83.56 272.409 83.392 272.953 83.056C273.513 82.72 273.961 82.264 274.297 81.688L275.809 82.576C275.505 83.12 275.113 83.592 274.633 83.992C274.169 84.392 273.617 84.704 272.977 84.928C272.353 85.136 271.649 85.24 270.865 85.24ZM279.701 85V73H281.261L281.525 74.968C281.861 74.232 282.349 73.68 282.989 73.312C283.645 72.944 284.437 72.76 285.365 72.76C285.573 72.76 285.797 72.776 286.037 72.808C286.293 72.84 286.509 72.904 286.685 73L286.349 74.752C286.173 74.688 285.981 74.64 285.773 74.608C285.565 74.576 285.269 74.56 284.885 74.56C284.389 74.56 283.885 74.704 283.373 74.992C282.877 75.28 282.461 75.72 282.125 76.312C281.789 76.888 281.621 77.624 281.621 78.52V85H279.701ZM293.302 85.24C292.134 85.24 291.054 84.992 290.062 84.496C289.086 84 288.334 83.296 287.806 82.384L289.438 81.208C289.79 81.944 290.302 82.52 290.974 82.936C291.662 83.352 292.486 83.56 293.446 83.56C294.294 83.56 294.958 83.4 295.438 83.08C295.918 82.744 296.158 82.312 296.158 81.784C296.158 81.448 296.046 81.144 295.822 80.872C295.614 80.584 295.206 80.376 294.598 80.248L291.718 79.648C290.55 79.408 289.71 79.008 289.198 78.448C288.702 77.888 288.454 77.192 288.454 76.36C288.454 75.704 288.638 75.104 289.006 74.56C289.39 74.016 289.926 73.584 290.614 73.264C291.318 72.928 292.142 72.76 293.086 72.76C294.27 72.76 295.27 72.992 296.086 73.456C296.902 73.92 297.51 74.576 297.91 75.424L296.302 76.48C296.03 75.776 295.59 75.264 294.982 74.944C294.374 74.608 293.742 74.44 293.086 74.44C292.51 74.44 292.014 74.52 291.598 74.68C291.198 74.84 290.886 75.064 290.662 75.352C290.454 75.624 290.35 75.936 290.35 76.288C290.35 76.64 290.47 76.968 290.71 77.272C290.95 77.56 291.398 77.768 292.054 77.896L295.054 78.52C296.174 78.744 296.958 79.112 297.406 79.624C297.854 80.136 298.078 80.76 298.078 81.496C298.078 82.248 297.878 82.912 297.478 83.488C297.078 84.048 296.518 84.48 295.798 84.784C295.078 85.088 294.246 85.24 293.302 85.24ZM302.598 70.696C302.166 70.696 301.814 70.568 301.542 70.312C301.286 70.04 301.158 69.688 301.158 69.256C301.158 68.824 301.286 68.48 301.542 68.224C301.814 67.952 302.166 67.816 302.598 67.816C303.03 67.816 303.374 67.952 303.63 68.224C303.902 68.48 304.038 68.824 304.038 69.256C304.038 69.688 303.902 70.04 303.63 70.312C303.374 70.568 303.03 70.696 302.598 70.696ZM303.558 73V85H301.638V73H303.558ZM310.845 69.592V81.688C310.845 82.28 311.013 82.72 311.349 83.008C311.685 83.296 312.117 83.44 312.645 83.44C313.109 83.44 313.509 83.36 313.845 83.2C314.181 83.04 314.485 82.824 314.757 82.552L315.429 84.16C315.061 84.496 314.621 84.76 314.109 84.952C313.613 85.144 313.037 85.24 312.381 85.24C311.773 85.24 311.205 85.136 310.677 84.928C310.149 84.704 309.725 84.36 309.405 83.896C309.101 83.416 308.941 82.792 308.925 82.024V70.12L310.845 69.592ZM315.213 73V74.656H306.525V73H315.213ZM327.932 73L322.292 87.016C321.988 87.8 321.652 88.416 321.284 88.864C320.932 89.328 320.532 89.656 320.084 89.848C319.652 90.056 319.148 90.16 318.572 90.16C318.028 90.16 317.524 90.08 317.06 89.92C316.612 89.776 316.212 89.576 315.86 89.32L316.388 87.64C316.708 87.928 317.044 88.136 317.396 88.264C317.764 88.408 318.124 88.48 318.476 88.48C318.892 88.48 319.284 88.352 319.652 88.096C320.02 87.84 320.356 87.32 320.66 86.536L321.284 84.976L320.084 82.12L316.268 73H318.452L321.452 80.824L322.196 82.96L323.06 80.584L325.868 73H327.932ZM342.981 72.76C344.117 72.76 345.117 73.008 345.981 73.504C346.861 74 347.549 74.72 348.045 75.664C348.541 76.592 348.789 77.704 348.789 79C348.789 80.296 348.541 81.416 348.045 82.36C347.549 83.288 346.861 84 345.981 84.496C345.117 84.992 344.117 85.24 342.981 85.24C341.861 85.24 340.861 84.992 339.981 84.496C339.101 84 338.413 83.288 337.917 82.36C337.421 81.416 337.173 80.296 337.173 79C337.173 77.704 337.421 76.592 337.917 75.664C338.413 74.72 339.101 74 339.981 73.504C340.861 73.008 341.861 72.76 342.981 72.76ZM342.981 74.416C342.165 74.416 341.469 74.6 340.893 74.968C340.317 75.336 339.869 75.864 339.549 76.552C339.245 77.224 339.093 78.04 339.093 79C339.093 79.944 339.245 80.76 339.549 81.448C339.869 82.136 340.317 82.664 340.893 83.032C341.469 83.4 342.165 83.584 342.981 83.584C343.797 83.584 344.493 83.4 345.069 83.032C345.645 82.664 346.085 82.136 346.389 81.448C346.709 80.76 346.869 79.944 346.869 79C346.869 78.04 346.709 77.224 346.389 76.552C346.085 75.864 345.645 75.336 345.069 74.968C344.493 74.6 343.797 74.416 342.981 74.416ZM357.065 67.36C357.481 67.36 357.873 67.408 358.241 67.504C358.609 67.6 358.897 67.736 359.105 67.912L358.601 69.472C358.409 69.344 358.201 69.256 357.977 69.208C357.753 69.144 357.505 69.112 357.233 69.112C356.545 69.112 356.009 69.28 355.625 69.616C355.241 69.936 355.049 70.456 355.049 71.176V73V73.624V85H353.129V70.984C353.129 70.456 353.209 69.968 353.369 69.52C353.529 69.072 353.769 68.688 354.089 68.368C354.425 68.048 354.841 67.8 355.337 67.624C355.833 67.448 356.409 67.36 357.065 67.36ZM359.057 73V74.656H350.729V73H359.057ZM150.513 113H148.473L146.793 108.608H139.617L137.937 113H135.921L142.089 97.16H144.369L150.513 113ZM140.313 106.808H146.097L143.193 99.008L140.313 106.808ZM153.373 113V101H154.933L155.197 102.968C155.533 102.232 156.021 101.68 156.661 101.312C157.317 100.944 158.109 100.76 159.037 100.76C159.245 100.76 159.469 100.776 159.709 100.808C159.965 100.84 160.181 100.904 160.357 101L160.021 102.752C159.845 102.688 159.653 102.64 159.445 102.608C159.237 102.576 158.941 102.56 158.557 102.56C158.061 102.56 157.557 102.704 157.045 102.992C156.549 103.28 156.133 103.72 155.797 104.312C155.461 104.888 155.293 105.624 155.293 106.52V113H153.373ZM167.763 100.76C168.595 100.76 169.323 100.888 169.947 101.144C170.587 101.4 171.139 101.768 171.603 102.248C172.067 102.728 172.443 103.296 172.731 103.952L170.907 104.816C170.651 104.048 170.259 103.464 169.731 103.064C169.219 102.648 168.547 102.44 167.715 102.44C166.915 102.44 166.227 102.624 165.651 102.992C165.075 103.344 164.635 103.864 164.331 104.552C164.027 105.224 163.875 106.04 163.875 107C163.875 107.944 164.027 108.76 164.331 109.448C164.635 110.136 165.075 110.664 165.651 111.032C166.227 111.384 166.915 111.56 167.715 111.56C168.339 111.56 168.875 111.464 169.323 111.272C169.787 111.08 170.163 110.8 170.451 110.432C170.755 110.064 170.963 109.616 171.075 109.088L172.851 109.712C172.579 110.448 172.203 111.08 171.723 111.608C171.259 112.136 170.691 112.544 170.019 112.832C169.363 113.104 168.611 113.24 167.763 113.24C166.643 113.24 165.643 112.992 164.763 112.496C163.883 112 163.195 111.288 162.699 110.36C162.203 109.416 161.955 108.296 161.955 107C161.955 105.704 162.203 104.592 162.699 103.664C163.195 102.72 163.883 102 164.763 101.504C165.643 101.008 166.643 100.76 167.763 100.76ZM176.224 113V95.48H178.144V102.8C178.56 102.08 179.112 101.56 179.8 101.24C180.488 100.92 181.24 100.76 182.056 100.76C182.92 100.76 183.704 100.928 184.408 101.264C185.112 101.584 185.672 102.08 186.088 102.752C186.52 103.424 186.736 104.28 186.736 105.32V113H184.816V105.992C184.816 104.664 184.528 103.744 183.952 103.232C183.392 102.704 182.696 102.44 181.864 102.44C181.288 102.44 180.712 102.576 180.136 102.848C179.56 103.12 179.08 103.568 178.696 104.192C178.328 104.8 178.144 105.616 178.144 106.64V113H176.224ZM192.044 98.696C191.612 98.696 191.26 98.568 190.988 98.312C190.732 98.04 190.604 97.688 190.604 97.256C190.604 96.824 190.732 96.48 190.988 96.224C191.26 95.952 191.612 95.816 192.044 95.816C192.476 95.816 192.82 95.952 193.076 96.224C193.348 96.48 193.484 96.824 193.484 97.256C193.484 97.688 193.348 98.04 193.076 98.312C192.82 98.568 192.476 98.696 192.044 98.696ZM193.004 101V113H191.084V101H193.004ZM200.291 97.592V109.688C200.291 110.28 200.459 110.72 200.795 111.008C201.131 111.296 201.563 111.44 202.091 111.44C202.555 111.44 202.955 111.36 203.291 111.2C203.627 111.04 203.931 110.824 204.203 110.552L204.875 112.16C204.507 112.496 204.067 112.76 203.555 112.952C203.059 113.144 202.483 113.24 201.827 113.24C201.219 113.24 200.651 113.136 200.123 112.928C199.595 112.704 199.171 112.36 198.851 111.896C198.547 111.416 198.387 110.792 198.371 110.024V98.12L200.291 97.592ZM204.659 101V102.656H195.971V101H204.659ZM212.529 113.24C211.393 113.24 210.377 112.992 209.481 112.496C208.601 112 207.913 111.288 207.417 110.36C206.921 109.416 206.673 108.296 206.673 107C206.673 105.704 206.921 104.592 207.417 103.664C207.913 102.72 208.593 102 209.457 101.504C210.321 101.008 211.305 100.76 212.409 100.76C213.529 100.76 214.481 101 215.265 101.48C216.065 101.96 216.673 102.616 217.089 103.448C217.505 104.264 217.713 105.184 217.713 106.208C217.713 106.48 217.705 106.728 217.689 106.952C217.673 107.176 217.649 107.376 217.617 107.552H207.921V105.848H216.777L215.793 106.04C215.793 104.888 215.473 104 214.833 103.376C214.209 102.752 213.385 102.44 212.361 102.44C211.577 102.44 210.897 102.624 210.321 102.992C209.761 103.344 209.321 103.864 209.001 104.552C208.697 105.224 208.545 106.04 208.545 107C208.545 107.944 208.705 108.76 209.025 109.448C209.345 110.136 209.793 110.664 210.369 111.032C210.961 111.384 211.665 111.56 212.481 111.56C213.361 111.56 214.073 111.392 214.617 111.056C215.177 110.72 215.625 110.264 215.961 109.688L217.473 110.576C217.169 111.12 216.777 111.592 216.297 111.992C215.833 112.392 215.281 112.704 214.641 112.928C214.017 113.136 213.313 113.24 212.529 113.24ZM226.333 100.76C227.165 100.76 227.893 100.888 228.517 101.144C229.157 101.4 229.709 101.768 230.173 102.248C230.637 102.728 231.013 103.296 231.301 103.952L229.477 104.816C229.221 104.048 228.829 103.464 228.301 103.064C227.789 102.648 227.117 102.44 226.285 102.44C225.485 102.44 224.797 102.624 224.221 102.992C223.645 103.344 223.205 103.864 222.901 104.552C222.597 105.224 222.445 106.04 222.445 107C222.445 107.944 222.597 108.76 222.901 109.448C223.205 110.136 223.645 110.664 224.221 111.032C224.797 111.384 225.485 111.56 226.285 111.56C226.909 111.56 227.445 111.464 227.893 111.272C228.357 111.08 228.733 110.8 229.021 110.432C229.325 110.064 229.533 109.616 229.645 109.088L231.421 109.712C231.149 110.448 230.773 111.08 230.293 111.608C229.829 112.136 229.261 112.544 228.589 112.832C227.933 113.104 227.181 113.24 226.333 113.24C225.213 113.24 224.213 112.992 223.333 112.496C222.453 112 221.765 111.288 221.269 110.36C220.773 109.416 220.525 108.296 220.525 107C220.525 105.704 220.773 104.592 221.269 103.664C221.765 102.72 222.453 102 223.333 101.504C224.213 101.008 225.213 100.76 226.333 100.76ZM237.627 97.592V109.688C237.627 110.28 237.795 110.72 238.131 111.008C238.467 111.296 238.899 111.44 239.427 111.44C239.891 111.44 240.291 111.36 240.627 111.2C240.963 111.04 241.267 110.824 241.539 110.552L242.211 112.16C241.843 112.496 241.403 112.76 240.891 112.952C240.395 113.144 239.819 113.24 239.163 113.24C238.555 113.24 237.987 113.136 237.459 112.928C236.931 112.704 236.507 112.36 236.187 111.896C235.883 111.416 235.723 110.792 235.707 110.024V98.12L237.627 97.592ZM241.995 101V102.656H233.307V101H241.995ZM249.193 113.24C248.425 113.24 247.697 113.096 247.009 112.808C246.337 112.52 245.785 112.056 245.353 111.416C244.937 110.76 244.729 109.912 244.729 108.872V101H246.649V108.368C246.649 109.584 246.913 110.424 247.441 110.888C247.969 111.336 248.713 111.56 249.673 111.56C250.121 111.56 250.561 111.488 250.993 111.344C251.425 111.184 251.809 110.944 252.145 110.624C252.497 110.288 252.769 109.864 252.961 109.352C253.169 108.84 253.273 108.232 253.273 107.528V101H255.193V113H253.513L253.393 111.176C252.977 111.896 252.409 112.424 251.689 112.76C250.985 113.08 250.153 113.24 249.193 113.24ZM259.662 113V101H261.222L261.486 102.968C261.822 102.232 262.31 101.68 262.95 101.312C263.606 100.944 264.398 100.76 265.326 100.76C265.534 100.76 265.758 100.776 265.998 100.808C266.254 100.84 266.47 100.904 266.646 101L266.31 102.752C266.134 102.688 265.942 102.64 265.734 102.608C265.526 102.576 265.23 102.56 264.846 102.56C264.35 102.56 263.846 102.704 263.334 102.992C262.838 103.28 262.422 103.72 262.086 104.312C261.75 104.888 261.582 105.624 261.582 106.52V113H259.662ZM274.1 113.24C272.964 113.24 271.948 112.992 271.052 112.496C270.172 112 269.484 111.288 268.988 110.36C268.492 109.416 268.244 108.296 268.244 107C268.244 105.704 268.492 104.592 268.988 103.664C269.484 102.72 270.164 102 271.028 101.504C271.892 101.008 272.876 100.76 273.98 100.76C275.1 100.76 276.052 101 276.836 101.48C277.636 101.96 278.244 102.616 278.66 103.448C279.076 104.264 279.284 105.184 279.284 106.208C279.284 106.48 279.276 106.728 279.26 106.952C279.244 107.176 279.22 107.376 279.188 107.552H269.492V105.848H278.348L277.364 106.04C277.364 104.888 277.044 104 276.404 103.376C275.78 102.752 274.956 102.44 273.932 102.44C273.148 102.44 272.468 102.624 271.892 102.992C271.332 103.344 270.892 103.864 270.572 104.552C270.268 105.224 270.116 106.04 270.116 107C270.116 107.944 270.276 108.76 270.596 109.448C270.916 110.136 271.364 110.664 271.94 111.032C272.532 111.384 273.236 111.56 274.052 111.56C274.932 111.56 275.644 111.392 276.188 111.056C276.748 110.72 277.196 110.264 277.532 109.688L279.044 110.576C278.74 111.12 278.348 111.592 277.868 111.992C277.404 112.392 276.852 112.704 276.212 112.928C275.588 113.136 274.884 113.24 274.1 113.24Z" fill="white"/>
</svg>
