<svg width="1054" height="446" viewBox="0 0 1054 446" fill="none" xmlns="http://www.w3.org/2000/svg">
<rect width="1054" height="444.893" transform="translate(0 0.564453)" fill="#F6F8F7"/>
<path d="M480.339 40.1114C481.955 40.1114 483.377 40.366 484.607 40.8753C485.853 41.367 486.933 42.0958 487.847 43.0617L485.66 45.9857C484.905 45.1954 484.089 44.6071 483.21 44.2208C482.35 43.8169 481.366 43.6149 480.26 43.6149C479.61 43.6149 479.083 43.6851 478.68 43.8256C478.276 43.9661 477.986 44.1593 477.81 44.4052C477.635 44.651 477.547 44.932 477.547 45.2481C477.547 45.6169 477.714 45.933 478.047 46.1964C478.399 46.4423 478.961 46.653 479.733 46.8287L482.657 47.4872C484.396 47.8911 485.669 48.4795 486.477 49.2522C487.285 50.0249 487.689 51.0522 487.689 52.3342C487.689 53.5635 487.373 54.6084 486.74 55.469C486.108 56.3119 485.239 56.9529 484.132 57.3919C483.026 57.8134 481.762 58.0242 480.339 58.0242C479.18 58.0242 478.074 57.9012 477.02 57.6554C475.966 57.3919 475.018 57.0232 474.175 56.549C473.332 56.0748 472.621 55.5304 472.041 54.9158L474.228 51.8864C474.667 52.3957 475.202 52.8523 475.835 53.2562C476.484 53.6426 477.187 53.9499 477.942 54.1782C478.715 54.4065 479.496 54.5206 480.286 54.5206C480.901 54.5206 481.41 54.4592 481.814 54.3362C482.236 54.2133 482.543 54.0289 482.736 53.783C482.929 53.5372 483.026 53.2474 483.026 52.9137C483.026 52.545 482.894 52.2376 482.631 51.9918C482.367 51.7283 481.867 51.5088 481.129 51.3332L477.916 50.622C476.932 50.3937 476.054 50.0951 475.281 49.7263C474.526 49.34 473.929 48.8307 473.49 48.1985C473.051 47.5487 472.832 46.7409 472.832 45.775C472.832 44.6862 473.13 43.7203 473.727 42.8773C474.324 42.0168 475.185 41.3407 476.309 40.8489C477.433 40.3572 478.776 40.1114 480.339 40.1114ZM496.633 58.0242C495.175 58.0242 493.911 57.752 492.839 57.2076C491.786 56.6631 490.969 55.8817 490.39 54.8631C489.81 53.8445 489.52 52.6152 489.52 51.1752C489.52 49.7351 489.81 48.5058 490.39 47.4872C490.969 46.4687 491.777 45.6872 492.813 45.1428C493.867 44.5983 495.07 44.3261 496.422 44.3261C497.809 44.3261 498.986 44.5983 499.952 45.1428C500.935 45.6696 501.682 46.4072 502.191 47.3555C502.7 48.2863 502.955 49.3575 502.955 50.5693C502.955 50.8854 502.946 51.2015 502.929 51.5176C502.911 51.8337 502.885 52.0971 502.849 52.3079H492.418V49.9107H500.874L498.74 50.7273C498.74 49.6736 498.547 48.8658 498.161 48.3038C497.792 47.7419 497.212 47.4609 496.422 47.4609C495.86 47.4609 495.377 47.5926 494.973 47.856C494.587 48.1194 494.288 48.5321 494.077 49.0941C493.884 49.6561 493.788 50.3761 493.788 51.2542C493.788 52.1147 493.902 52.8172 494.13 53.3616C494.358 53.8884 494.683 54.2748 495.105 54.5206C495.526 54.7489 496.036 54.8631 496.633 54.8631C497.3 54.8631 497.827 54.7314 498.213 54.4679C498.617 54.2045 498.916 53.8357 499.109 53.3616L502.691 54.547C502.446 55.3021 502.015 55.9431 501.401 56.47C500.804 56.9793 500.084 57.3656 499.241 57.629C498.415 57.8925 497.546 58.0242 496.633 58.0242ZM505.46 57.7607V44.5896H509.411L509.596 47.4345C509.929 46.4511 510.421 45.6872 511.071 45.1428C511.738 44.5983 512.581 44.3261 513.6 44.3261C513.934 44.3261 514.215 44.3525 514.443 44.4052C514.689 44.4579 514.882 44.5281 515.022 44.6159L514.575 48.3038C514.399 48.2336 514.171 48.1809 513.89 48.1458C513.626 48.0931 513.301 48.0668 512.915 48.0668C512.388 48.0668 511.896 48.1809 511.44 48.4092C510.983 48.6375 510.614 48.98 510.333 49.4366C510.07 49.8756 509.938 50.4376 509.938 51.1225V57.7607H505.46ZM525.34 44.5896H529.977L525.235 57.7607H519.887L515.146 44.5896H519.861L522.574 54.626L525.34 44.5896ZM533.784 43.0617C532.871 43.0617 532.204 42.8949 531.782 42.5612C531.378 42.21 531.176 41.6656 531.176 40.928C531.176 40.1728 531.378 39.6284 531.782 39.2947C532.204 38.9435 532.871 38.7679 533.784 38.7679C534.68 38.7679 535.338 38.9435 535.76 39.2947C536.181 39.6284 536.392 40.1728 536.392 40.928C536.392 41.6656 536.181 42.21 535.76 42.5612C535.338 42.8949 534.68 43.0617 533.784 43.0617ZM536.023 44.5896V57.7607H531.545V44.5896H536.023ZM545.454 44.3261C546.789 44.3261 547.895 44.5193 548.773 44.9057C549.669 45.2745 550.363 45.775 550.855 46.4072C551.364 47.0218 551.68 47.6892 551.803 48.4092L547.667 49.779C547.544 49.0239 547.316 48.4619 546.982 48.0931C546.666 47.7067 546.201 47.5136 545.586 47.5136C545.024 47.5136 544.55 47.6453 544.164 47.9087C543.795 48.1546 543.514 48.5585 543.321 49.1204C543.127 49.6649 543.031 50.3673 543.031 51.2278C543.031 52.0884 543.136 52.7908 543.347 53.3352C543.558 53.8621 543.856 54.2484 544.243 54.4943C544.629 54.7226 545.086 54.8367 545.612 54.8367C546.051 54.8367 546.411 54.7577 546.692 54.5997C546.991 54.424 547.237 54.1782 547.43 53.8621C547.623 53.546 547.746 53.1596 547.799 52.703L551.829 53.9938C551.706 54.7665 551.373 55.4602 550.828 56.0748C550.301 56.6719 549.599 57.1461 548.721 57.4973C547.843 57.8486 546.815 58.0242 545.639 58.0242C544.199 58.0242 542.943 57.7607 541.872 57.2339C540.801 56.6895 539.975 55.908 539.396 54.8894C538.816 53.8533 538.526 52.6152 538.526 51.1752C538.526 49.7351 538.816 48.5058 539.396 47.4872C539.975 46.4511 540.783 45.6696 541.819 45.1428C542.873 44.5983 544.085 44.3261 545.454 44.3261ZM560.585 58.0242C559.127 58.0242 557.863 57.752 556.792 57.2076C555.738 56.6631 554.921 55.8817 554.342 54.8631C553.762 53.8445 553.473 52.6152 553.473 51.1752C553.473 49.7351 553.762 48.5058 554.342 47.4872C554.921 46.4687 555.729 45.6872 556.765 45.1428C557.819 44.5983 559.022 44.3261 560.374 44.3261C561.762 44.3261 562.938 44.5983 563.904 45.1428C564.888 45.6696 565.634 46.4072 566.143 47.3555C566.652 48.2863 566.907 49.3575 566.907 50.5693C566.907 50.8854 566.898 51.2015 566.881 51.5176C566.863 51.8337 566.837 52.0971 566.802 52.3079H556.37V49.9107H564.826L562.692 50.7273C562.692 49.6736 562.499 48.8658 562.113 48.3038C561.744 47.7419 561.164 47.4609 560.374 47.4609C559.812 47.4609 559.329 47.5926 558.925 47.856C558.539 48.1194 558.24 48.5321 558.03 49.0941C557.837 49.6561 557.74 50.3761 557.74 51.2542C557.74 52.1147 557.854 52.8172 558.082 53.3616C558.311 53.8884 558.636 54.2748 559.057 54.5206C559.479 54.7489 559.988 54.8631 560.585 54.8631C561.252 54.8631 561.779 54.7314 562.165 54.4679C562.569 54.2045 562.868 53.8357 563.061 53.3616L566.644 54.547C566.398 55.3021 565.968 55.9431 565.353 56.47C564.756 56.9793 564.036 57.3656 563.193 57.629C562.367 57.8925 561.498 58.0242 560.585 58.0242ZM574.944 58.0242C573.627 58.0242 572.398 57.8134 571.256 57.3919C570.132 56.9529 569.202 56.3295 568.464 55.5216L570.571 53.0455C571.01 53.6074 571.59 54.0816 572.31 54.4679C573.048 54.8367 573.864 55.0211 574.76 55.0211C575.304 55.0211 575.752 54.9421 576.103 54.7841C576.455 54.626 576.63 54.3801 576.63 54.0465C576.63 53.8006 576.542 53.6074 576.367 53.4669C576.191 53.3089 575.84 53.1772 575.313 53.0718L573.469 52.703C571.818 52.3693 570.642 51.8776 569.939 51.2278C569.254 50.5605 568.912 49.6912 568.912 48.6199C568.912 47.8999 569.131 47.215 569.57 46.5652C570.009 45.8979 570.686 45.3623 571.599 44.9584C572.512 44.5369 573.68 44.3261 575.102 44.3261C576.437 44.3261 577.614 44.5193 578.632 44.9057C579.651 45.292 580.459 45.854 581.056 46.5916L578.922 49.0151C578.5 48.4882 577.956 48.0755 577.289 47.777C576.621 47.4784 575.954 47.3292 575.287 47.3292C574.865 47.3292 574.505 47.3731 574.207 47.4609C573.926 47.5311 573.715 47.6365 573.574 47.777C573.434 47.9175 573.364 48.0931 573.364 48.3038C573.364 48.5321 573.469 48.7341 573.68 48.9097C573.908 49.0678 574.321 49.2083 574.918 49.3312L577.315 49.8053C578.667 50.0512 579.642 50.499 580.239 51.1488C580.836 51.7986 581.135 52.5801 581.135 53.4933C581.135 54.3538 580.906 55.1265 580.45 55.8114C579.993 56.4963 579.308 57.0407 578.395 57.4446C577.482 57.831 576.332 58.0242 574.944 58.0242Z" fill="#292E3D"/>
<g filter="url(#filter0_d_102_395)">
<path d="M158.054 92.7626C158.054 91.1461 159.365 89.8357 160.981 89.8357H353.427C355.043 89.8357 356.354 91.1461 356.354 92.7626V219.352C356.354 220.969 355.043 222.279 353.427 222.279H160.981C159.365 222.279 158.054 220.969 158.054 219.352V92.7626Z" fill="white"/>
<g clip-path="url(#clip0_102_395)">
<rect x="242.569" y="129.752" width="17.0737" height="17.0738" fill="#7595FD"/>
<path d="M265.73 119.996H253.557C252.202 119.996 251.106 121.092 251.106 122.447V129.322L245.372 134.983C245.2 135.153 245.082 135.37 245.034 135.607C244.986 135.843 245.009 136.089 245.101 136.313C245.193 136.536 245.349 136.728 245.549 136.862C245.75 136.997 245.986 137.069 246.228 137.069V143.167C246.228 143.491 246.356 143.801 246.585 144.029C246.814 144.258 247.124 144.387 247.447 144.387H266.96C267.284 144.387 267.594 144.258 267.823 144.029C268.051 143.801 268.18 143.491 268.18 143.167V122.446C268.18 121.092 267.085 119.996 265.73 119.996ZM255.889 135.985V141.948H248.667V135.157L252.31 131.561L255.889 135.223V135.985V135.985ZM258.423 128.532H255.984V126.093H258.423V128.532ZM263.302 138.289H260.863V135.85H263.302V138.289ZM263.302 133.411H260.863V130.972H263.302V133.411ZM263.302 128.532H260.863V126.093H263.302V128.532Z" fill="#292E3D"/>
<path d="M251.106 135.85H253.545V138.289H251.106V135.85Z" fill="#14171F"/>
</g>
<rect x="235.252" y="161.46" width="43.9039" height="1.46346" fill="#E0E3EB"/>
<path d="M219.933 188.895C219.748 189.519 219.455 190.041 219.055 190.461C218.655 190.881 218.182 191.193 217.635 191.398C217.089 191.602 216.489 191.705 215.835 191.705C214.879 191.705 214.05 191.505 213.347 191.105C212.655 190.705 212.118 190.134 211.738 189.393C211.367 188.651 211.182 187.763 211.182 186.729C211.182 185.695 211.367 184.807 211.738 184.066C212.118 183.324 212.655 182.753 213.347 182.353C214.05 181.953 214.869 181.753 215.806 181.753C216.469 181.753 217.07 181.846 217.606 182.031C218.143 182.207 218.596 182.48 218.967 182.851C219.348 183.222 219.626 183.69 219.801 184.256L217.972 185.032C217.806 184.446 217.552 184.032 217.211 183.788C216.87 183.534 216.43 183.407 215.894 183.407C215.367 183.407 214.904 183.534 214.504 183.788C214.113 184.041 213.811 184.417 213.596 184.914C213.382 185.402 213.274 186.007 213.274 186.729C213.274 187.441 213.372 188.046 213.567 188.544C213.772 189.041 214.069 189.417 214.46 189.671C214.85 189.924 215.328 190.051 215.894 190.051C216.421 190.051 216.874 189.91 217.255 189.627C217.645 189.344 217.918 188.915 218.074 188.339L219.933 188.895ZM224.786 184.095C225.528 184.095 226.176 184.246 226.733 184.549C227.298 184.851 227.737 185.285 228.05 185.851C228.372 186.417 228.533 187.1 228.533 187.9C228.533 188.69 228.372 189.373 228.05 189.949C227.737 190.515 227.298 190.949 226.733 191.251C226.176 191.554 225.528 191.705 224.786 191.705C224.054 191.705 223.406 191.554 222.84 191.251C222.274 190.949 221.83 190.515 221.508 189.949C221.196 189.373 221.04 188.69 221.04 187.9C221.04 187.1 221.196 186.417 221.508 185.851C221.83 185.285 222.274 184.851 222.84 184.549C223.406 184.246 224.054 184.095 224.786 184.095ZM224.786 185.588C224.415 185.588 224.098 185.675 223.835 185.851C223.581 186.017 223.386 186.271 223.249 186.612C223.113 186.954 223.045 187.383 223.045 187.9C223.045 188.417 223.113 188.846 223.249 189.188C223.386 189.529 223.581 189.788 223.835 189.963C224.098 190.129 224.415 190.212 224.786 190.212C225.147 190.212 225.454 190.129 225.708 189.963C225.972 189.788 226.172 189.529 226.308 189.188C226.445 188.846 226.513 188.417 226.513 187.9C226.513 187.383 226.445 186.954 226.308 186.612C226.172 186.271 225.972 186.017 225.708 185.851C225.454 185.675 225.147 185.588 224.786 185.588ZM230.21 191.559V184.241H232.01L232.127 186.436L231.879 186.202C231.996 185.724 232.181 185.329 232.435 185.017C232.688 184.705 232.996 184.475 233.357 184.329C233.727 184.173 234.132 184.095 234.571 184.095C235.079 184.095 235.527 184.192 235.918 184.388C236.318 184.583 236.63 184.88 236.854 185.28C237.088 185.671 237.206 186.163 237.206 186.758V191.559H235.201V187.329C235.201 186.705 235.079 186.275 234.835 186.041C234.591 185.797 234.274 185.675 233.883 185.675C233.61 185.675 233.342 185.744 233.079 185.88C232.825 186.007 232.615 186.217 232.449 186.51C232.293 186.802 232.215 187.193 232.215 187.68V191.559H230.21ZM242.198 191.705C241.457 191.705 240.778 191.573 240.164 191.31C239.559 191.046 239.066 190.676 238.686 190.198L239.842 189.027C240.076 189.378 240.388 189.666 240.778 189.89C241.169 190.115 241.632 190.227 242.169 190.227C242.549 190.227 242.852 190.173 243.076 190.066C243.31 189.949 243.427 189.768 243.427 189.524C243.427 189.368 243.374 189.237 243.266 189.129C243.159 189.012 242.944 188.919 242.622 188.851L241.335 188.588C240.486 188.412 239.881 188.149 239.52 187.797C239.169 187.437 238.993 186.973 238.993 186.407C238.993 186.007 239.11 185.632 239.344 185.28C239.588 184.929 239.949 184.646 240.427 184.432C240.905 184.207 241.5 184.095 242.213 184.095C242.944 184.095 243.579 184.212 244.115 184.446C244.662 184.671 245.091 185.007 245.403 185.456L244.203 186.627C243.988 186.285 243.705 186.027 243.354 185.851C243.013 185.666 242.652 185.573 242.271 185.573C241.998 185.573 241.764 185.602 241.569 185.661C241.374 185.719 241.227 185.802 241.13 185.91C241.032 186.007 240.983 186.134 240.983 186.29C240.983 186.446 241.052 186.583 241.188 186.7C241.325 186.807 241.574 186.9 241.935 186.978L243.427 187.285C244.149 187.432 244.666 187.68 244.979 188.032C245.291 188.373 245.447 188.788 245.447 189.276C245.447 189.744 245.32 190.163 245.066 190.534C244.823 190.895 244.457 191.183 243.969 191.398C243.491 191.602 242.9 191.705 242.198 191.705ZM249.636 182.002V189.173C249.636 189.524 249.724 189.783 249.9 189.949C250.085 190.105 250.334 190.183 250.646 190.183C250.89 190.183 251.104 190.149 251.29 190.08C251.475 190.002 251.641 189.9 251.787 189.773L252.109 191.105C251.875 191.29 251.582 191.437 251.231 191.544C250.88 191.651 250.509 191.705 250.119 191.705C249.631 191.705 249.197 191.632 248.817 191.485C248.446 191.339 248.153 191.105 247.938 190.783C247.734 190.461 247.631 190.032 247.631 189.495V182.558L249.636 182.002ZM251.978 184.241V185.734H246.285V184.241H251.978ZM253.334 191.559V184.241H255.076L255.207 185.675C255.402 185.168 255.685 184.778 256.056 184.505C256.437 184.232 256.91 184.095 257.476 184.095C257.642 184.095 257.793 184.11 257.929 184.139C258.066 184.168 258.178 184.207 258.266 184.256L258.032 185.939C257.934 185.9 257.812 185.871 257.666 185.851C257.529 185.832 257.349 185.822 257.124 185.822C256.832 185.822 256.549 185.895 256.276 186.041C256.002 186.178 255.778 186.393 255.602 186.685C255.427 186.968 255.339 187.329 255.339 187.768V191.559H253.334ZM262.054 191.705C261.567 191.705 261.128 191.617 260.737 191.442C260.347 191.266 260.035 190.988 259.801 190.607C259.576 190.217 259.464 189.715 259.464 189.1V184.241H261.469V188.617C261.469 189.183 261.586 189.578 261.82 189.802C262.054 190.017 262.391 190.124 262.83 190.124C263.035 190.124 263.235 190.09 263.43 190.022C263.625 189.944 263.796 189.827 263.942 189.671C264.098 189.515 264.22 189.315 264.308 189.071C264.396 188.817 264.44 188.519 264.44 188.178V184.241H266.445V191.559H264.659L264.586 190.285C264.342 190.773 264.006 191.134 263.577 191.368C263.157 191.593 262.65 191.705 262.054 191.705ZM271.877 184.095C272.53 184.095 273.082 184.192 273.53 184.388C273.989 184.573 274.355 184.832 274.628 185.163C274.911 185.485 275.111 185.846 275.228 186.246L273.355 186.919C273.257 186.48 273.091 186.149 272.857 185.924C272.623 185.7 272.306 185.588 271.906 185.588C271.535 185.588 271.218 185.675 270.955 185.851C270.691 186.017 270.491 186.275 270.355 186.627C270.218 186.968 270.15 187.397 270.15 187.915C270.15 188.432 270.218 188.861 270.355 189.202C270.501 189.544 270.706 189.798 270.969 189.963C271.243 190.129 271.56 190.212 271.921 190.212C272.213 190.212 272.462 190.163 272.667 190.066C272.872 189.959 273.038 189.807 273.165 189.612C273.301 189.417 273.394 189.183 273.443 188.91L275.257 189.495C275.15 189.934 274.95 190.32 274.657 190.651C274.365 190.983 273.989 191.242 273.53 191.427C273.072 191.612 272.54 191.705 271.935 191.705C271.184 191.705 270.521 191.554 269.945 191.251C269.369 190.949 268.925 190.515 268.613 189.949C268.301 189.383 268.145 188.7 268.145 187.9C268.145 187.1 268.301 186.417 268.613 185.851C268.925 185.285 269.364 184.851 269.93 184.549C270.496 184.246 271.145 184.095 271.877 184.095ZM279.406 182.002V189.173C279.406 189.524 279.493 189.783 279.669 189.949C279.854 190.105 280.103 190.183 280.415 190.183C280.659 190.183 280.874 190.149 281.059 190.08C281.245 190.002 281.411 189.9 281.557 189.773L281.879 191.105C281.645 191.29 281.352 191.437 281.001 191.544C280.65 191.651 280.279 191.705 279.889 191.705C279.401 191.705 278.967 191.632 278.586 191.485C278.215 191.339 277.923 191.105 277.708 190.783C277.503 190.461 277.401 190.032 277.401 189.495V182.558L279.406 182.002ZM281.747 184.241V185.734H276.054V184.241H281.747ZM284.113 183.188C283.694 183.188 283.382 183.1 283.177 182.924C282.972 182.739 282.869 182.47 282.869 182.119C282.869 181.758 282.972 181.49 283.177 181.314C283.382 181.129 283.694 181.036 284.113 181.036C284.533 181.036 284.845 181.129 285.05 181.314C285.255 181.49 285.357 181.758 285.357 182.119C285.357 182.47 285.255 182.739 285.05 182.924C284.845 183.1 284.533 183.188 284.113 183.188ZM285.109 184.241V191.559H283.104V184.241H285.109ZM290.571 184.095C291.312 184.095 291.961 184.246 292.517 184.549C293.083 184.851 293.522 185.285 293.834 185.851C294.156 186.417 294.317 187.1 294.317 187.9C294.317 188.69 294.156 189.373 293.834 189.949C293.522 190.515 293.083 190.949 292.517 191.251C291.961 191.554 291.312 191.705 290.571 191.705C289.839 191.705 289.19 191.554 288.624 191.251C288.058 190.949 287.614 190.515 287.292 189.949C286.98 189.373 286.824 188.69 286.824 187.9C286.824 187.1 286.98 186.417 287.292 185.851C287.614 185.285 288.058 184.851 288.624 184.549C289.19 184.246 289.839 184.095 290.571 184.095ZM290.571 185.588C290.2 185.588 289.883 185.675 289.619 185.851C289.366 186.017 289.171 186.271 289.034 186.612C288.897 186.954 288.829 187.383 288.829 187.9C288.829 188.417 288.897 188.846 289.034 189.188C289.171 189.529 289.366 189.788 289.619 189.963C289.883 190.129 290.2 190.212 290.571 190.212C290.932 190.212 291.239 190.129 291.493 189.963C291.756 189.788 291.956 189.529 292.093 189.188C292.229 188.846 292.297 188.417 292.297 187.9C292.297 187.383 292.229 186.954 292.093 186.612C291.956 186.271 291.756 186.017 291.493 185.851C291.239 185.675 290.932 185.588 290.571 185.588ZM295.995 191.559V184.241H297.795L297.912 186.436L297.663 186.202C297.78 185.724 297.965 185.329 298.219 185.017C298.473 184.705 298.78 184.475 299.141 184.329C299.512 184.173 299.917 184.095 300.356 184.095C300.863 184.095 301.312 184.192 301.702 184.388C302.102 184.583 302.414 184.88 302.639 185.28C302.873 185.671 302.99 186.163 302.99 186.758V191.559H300.985V187.329C300.985 186.705 300.863 186.275 300.619 186.041C300.375 185.797 300.058 185.675 299.668 185.675C299.395 185.675 299.126 185.744 298.863 185.88C298.609 186.007 298.4 186.217 298.234 186.51C298.078 186.802 298 187.193 298 187.68V191.559H295.995Z" fill="#2947A9"/>
</g>
<g filter="url(#filter1_d_102_395)">
<path d="M428.063 92.7626C428.063 91.1461 429.374 89.8357 430.99 89.8357H623.436C625.052 89.8357 626.363 91.1461 626.363 92.7626V219.352C626.363 220.969 625.052 222.279 623.436 222.279H430.99C429.374 222.279 428.063 220.969 428.063 219.352V92.7626Z" fill="#2947A9"/>
<g clip-path="url(#clip1_102_395)">
<rect x="512.578" y="129.752" width="17.0737" height="17.0738" fill="#7595FD"/>
<path d="M536.36 121.215C535.551 121.216 534.776 121.537 534.205 122.109C533.633 122.681 533.312 123.456 533.311 124.264C533.311 124.699 533.406 125.113 533.572 125.49L531.188 128.171C530.378 127.612 529.417 127.313 528.433 127.313C527.53 127.313 526.696 127.576 525.97 128.003L523.197 125.231L523.169 125.259C523.408 124.774 523.554 124.234 523.554 123.654C523.554 122.931 523.34 122.223 522.938 121.622C522.536 121.02 521.964 120.551 521.296 120.274C520.627 119.997 519.892 119.925 519.182 120.066C518.472 120.207 517.82 120.556 517.309 121.067C516.797 121.579 516.449 122.231 516.307 122.94C516.166 123.65 516.239 124.386 516.516 125.054C516.793 125.723 517.261 126.294 517.863 126.696C518.465 127.098 519.172 127.313 519.896 127.313C520.475 127.313 521.014 127.167 521.501 126.928L521.473 126.956L524.246 129.728C523.798 130.472 523.559 131.323 523.554 132.191C523.554 133.407 524.018 134.507 524.756 135.363L521.613 138.505C521.261 138.364 520.885 138.291 520.506 138.289C518.825 138.289 517.457 139.656 517.457 141.338C517.457 143.02 518.825 144.387 520.506 144.387C522.186 144.387 523.554 143.02 523.554 141.338C523.554 140.946 523.474 140.574 523.339 140.229L526.8 136.768C527.313 136.951 527.857 137.069 528.433 137.069C531.123 137.069 533.311 134.881 533.311 132.191C533.311 131.416 533.112 130.692 532.789 130.04L535.371 127.134C535.683 127.241 536.012 127.313 536.36 127.313C538.042 127.313 539.409 125.946 539.409 124.264C539.409 122.582 538.042 121.215 536.36 121.215ZM528.433 134.63C527.087 134.63 525.994 133.536 525.994 132.191C525.994 130.846 527.087 129.752 528.433 129.752C529.778 129.752 530.872 130.846 530.872 132.191C530.872 133.536 529.778 134.63 528.433 134.63Z" fill="white"/>
</g>
<rect x="505.261" y="161.46" width="43.9039" height="1.46346" fill="#E0E3EB"/>
<path d="M492.628 181.9C493.721 181.9 494.579 182.163 495.204 182.69C495.828 183.217 496.14 183.924 496.14 184.812C496.14 185.758 495.828 186.485 495.204 186.993C494.579 187.49 493.726 187.739 492.643 187.739L492.438 187.856H490.36V191.559H488.369V181.9H492.628ZM492.394 186.319C492.96 186.319 493.379 186.207 493.652 185.983C493.935 185.749 494.077 185.393 494.077 184.914C494.077 184.436 493.935 184.085 493.652 183.861C493.379 183.627 492.96 183.51 492.394 183.51H490.36V186.319H492.394ZM493.579 186.744L496.711 191.559H494.443L491.852 187.329L493.579 186.744ZM501.364 191.705C500.593 191.705 499.92 191.554 499.344 191.251C498.778 190.949 498.339 190.515 498.027 189.949C497.715 189.383 497.559 188.7 497.559 187.9C497.559 187.1 497.715 186.417 498.027 185.851C498.339 185.285 498.773 184.851 499.33 184.549C499.895 184.246 500.539 184.095 501.261 184.095C502.003 184.095 502.632 184.246 503.149 184.549C503.666 184.841 504.061 185.246 504.335 185.763C504.608 186.271 504.744 186.851 504.744 187.505C504.744 187.7 504.739 187.885 504.73 188.061C504.72 188.237 504.705 188.393 504.686 188.529H498.847V187.139H503.808L502.842 187.49C502.842 186.876 502.7 186.402 502.417 186.071C502.144 185.739 501.754 185.573 501.247 185.573C500.876 185.573 500.554 185.661 500.281 185.836C500.017 186.012 499.817 186.275 499.681 186.627C499.544 186.968 499.476 187.402 499.476 187.929C499.476 188.446 499.549 188.876 499.695 189.217C499.851 189.549 500.066 189.798 500.339 189.963C500.622 190.129 500.959 190.212 501.349 190.212C501.778 190.212 502.125 190.129 502.388 189.963C502.652 189.798 502.856 189.568 503.003 189.276L504.598 189.89C504.442 190.271 504.203 190.598 503.881 190.871C503.569 191.144 503.193 191.354 502.754 191.5C502.325 191.637 501.861 191.705 501.364 191.705ZM506.443 191.559V184.241H508.243L508.361 186.436L508.112 186.202C508.229 185.724 508.414 185.329 508.668 185.017C508.922 184.705 509.229 184.475 509.59 184.329C509.961 184.173 510.366 184.095 510.805 184.095C511.312 184.095 511.761 184.192 512.151 184.388C512.551 184.583 512.863 184.88 513.088 185.28C513.322 185.671 513.439 186.163 513.439 186.758V191.559H511.434V187.329C511.434 186.705 511.312 186.275 511.068 186.041C510.824 185.797 510.507 185.675 510.117 185.675C509.844 185.675 509.575 185.744 509.312 185.88C509.058 186.007 508.848 186.217 508.683 186.51C508.526 186.802 508.448 187.193 508.448 187.68V191.559H506.443ZM518.841 184.095C519.583 184.095 520.231 184.246 520.787 184.549C521.353 184.851 521.792 185.285 522.105 185.851C522.427 186.417 522.588 187.1 522.588 187.9C522.588 188.69 522.427 189.373 522.105 189.949C521.792 190.515 521.353 190.949 520.787 191.251C520.231 191.554 519.583 191.705 518.841 191.705C518.109 191.705 517.46 191.554 516.895 191.251C516.329 190.949 515.885 190.515 515.563 189.949C515.251 189.373 515.095 188.69 515.095 187.9C515.095 187.1 515.251 186.417 515.563 185.851C515.885 185.285 516.329 184.851 516.895 184.549C517.46 184.246 518.109 184.095 518.841 184.095ZM518.841 185.588C518.47 185.588 518.153 185.675 517.89 185.851C517.636 186.017 517.441 186.271 517.304 186.612C517.168 186.954 517.1 187.383 517.1 187.9C517.1 188.417 517.168 188.846 517.304 189.188C517.441 189.529 517.636 189.788 517.89 189.963C518.153 190.129 518.47 190.212 518.841 190.212C519.202 190.212 519.509 190.129 519.763 189.963C520.026 189.788 520.226 189.529 520.363 189.188C520.5 188.846 520.568 188.417 520.568 187.9C520.568 187.383 520.5 186.954 520.363 186.612C520.226 186.271 520.026 186.017 519.763 185.851C519.509 185.675 519.202 185.588 518.841 185.588ZM528.98 184.241H531.058L528.277 191.559H525.965L523.184 184.241H525.321L527.136 190.022L528.98 184.241ZM536.182 186.89C536.182 186.471 536.06 186.144 535.816 185.91C535.582 185.675 535.27 185.558 534.88 185.558C534.519 185.558 534.201 185.651 533.928 185.836C533.655 186.022 533.455 186.329 533.328 186.758L531.616 186.232C531.782 185.588 532.143 185.071 532.699 184.68C533.265 184.29 534.021 184.095 534.967 184.095C535.611 184.095 536.172 184.197 536.65 184.402C537.128 184.597 537.499 184.895 537.763 185.295C538.036 185.695 538.172 186.197 538.172 186.802V189.773C538.172 190.144 538.348 190.329 538.699 190.329C538.865 190.329 539.021 190.305 539.168 190.256L539.05 191.5C538.797 191.627 538.48 191.69 538.099 191.69C537.758 191.69 537.45 191.632 537.177 191.515C536.904 191.398 536.689 191.222 536.533 190.988C536.377 190.744 536.299 190.441 536.299 190.08V190.022L536.65 189.963C536.592 190.334 536.431 190.651 536.167 190.915C535.904 191.168 535.582 191.363 535.202 191.5C534.831 191.637 534.445 191.705 534.045 191.705C533.548 191.705 533.119 191.632 532.758 191.485C532.397 191.329 532.119 191.105 531.923 190.812C531.728 190.52 531.631 190.159 531.631 189.729C531.631 189.183 531.806 188.739 532.158 188.398C532.509 188.046 533.011 187.807 533.665 187.68L536.416 187.124L536.402 188.368L534.645 188.719C534.314 188.788 534.06 188.88 533.884 188.998C533.719 189.105 533.636 189.285 533.636 189.539C533.636 189.783 533.723 189.968 533.899 190.095C534.084 190.222 534.304 190.285 534.558 190.285C534.762 190.285 534.962 190.261 535.158 190.212C535.353 190.163 535.528 190.085 535.684 189.978C535.841 189.871 535.963 189.724 536.05 189.539C536.138 189.354 536.182 189.129 536.182 188.866V186.89ZM542.719 182.002V189.173C542.719 189.524 542.807 189.783 542.983 189.949C543.168 190.105 543.417 190.183 543.729 190.183C543.973 190.183 544.188 190.149 544.373 190.08C544.558 190.002 544.724 189.9 544.87 189.773L545.192 191.105C544.958 191.29 544.666 191.437 544.314 191.544C543.963 191.651 543.592 191.705 543.202 191.705C542.714 191.705 542.28 191.632 541.9 191.485C541.529 191.339 541.236 191.105 541.022 190.783C540.817 190.461 540.714 190.032 540.714 189.495V182.558L542.719 182.002ZM545.061 184.241V185.734H539.368V184.241H545.061ZM547.427 183.188C547.007 183.188 546.695 183.1 546.49 182.924C546.285 182.739 546.183 182.47 546.183 182.119C546.183 181.758 546.285 181.49 546.49 181.314C546.695 181.129 547.007 181.036 547.427 181.036C547.846 181.036 548.159 181.129 548.364 181.314C548.568 181.49 548.671 181.758 548.671 182.119C548.671 182.47 548.568 182.739 548.364 182.924C548.159 183.1 547.846 183.188 547.427 183.188ZM548.422 184.241V191.559H546.417V184.241H548.422ZM553.884 184.095C554.626 184.095 555.274 184.246 555.831 184.549C556.396 184.851 556.835 185.285 557.148 185.851C557.47 186.417 557.631 187.1 557.631 187.9C557.631 188.69 557.47 189.373 557.148 189.949C556.835 190.515 556.396 190.949 555.831 191.251C555.274 191.554 554.626 191.705 553.884 191.705C553.152 191.705 552.504 191.554 551.938 191.251C551.372 190.949 550.928 190.515 550.606 189.949C550.294 189.373 550.138 188.69 550.138 187.9C550.138 187.1 550.294 186.417 550.606 185.851C550.928 185.285 551.372 184.851 551.938 184.549C552.504 184.246 553.152 184.095 553.884 184.095ZM553.884 185.588C553.513 185.588 553.196 185.675 552.933 185.851C552.679 186.017 552.484 186.271 552.348 186.612C552.211 186.954 552.143 187.383 552.143 187.9C552.143 188.417 552.211 188.846 552.348 189.188C552.484 189.529 552.679 189.788 552.933 189.963C553.196 190.129 553.513 190.212 553.884 190.212C554.245 190.212 554.552 190.129 554.806 189.963C555.07 189.788 555.27 189.529 555.406 189.188C555.543 188.846 555.611 188.417 555.611 187.9C555.611 187.383 555.543 186.954 555.406 186.612C555.27 186.271 555.07 186.017 554.806 185.851C554.552 185.675 554.245 185.588 553.884 185.588ZM559.308 191.559V184.241H561.108L561.225 186.436L560.977 186.202C561.094 185.724 561.279 185.329 561.533 185.017C561.786 184.705 562.094 184.475 562.455 184.329C562.825 184.173 563.23 184.095 563.669 184.095C564.177 184.095 564.625 184.192 565.016 184.388C565.416 184.583 565.728 184.88 565.952 185.28C566.187 185.671 566.304 186.163 566.304 186.758V191.559H564.299V187.329C564.299 186.705 564.177 186.275 563.933 186.041C563.689 185.797 563.372 185.675 562.982 185.675C562.708 185.675 562.44 185.744 562.177 185.88C561.923 186.007 561.713 186.217 561.547 186.51C561.391 186.802 561.313 187.193 561.313 187.68V191.559H559.308Z" fill="white"/>
</g>
<g filter="url(#filter2_d_102_395)">
<path d="M698.073 92.7626C698.073 91.1461 699.383 89.8357 700.999 89.8357H892.713C894.33 89.8357 895.64 91.1461 895.64 92.7626V219.352C895.64 220.969 894.33 222.279 892.713 222.279H700.999C699.383 222.279 698.073 220.969 698.073 219.352V92.7626Z" fill="white"/>
<g clip-path="url(#clip2_102_395)">
<rect x="782.222" y="129.752" width="17.0737" height="17.0738" fill="#7595FD"/>
<path d="M795.637 124.874H799.295L803.308 120.849C803.421 120.735 803.556 120.644 803.705 120.582C803.853 120.52 804.013 120.489 804.174 120.489C804.335 120.489 804.494 120.52 804.643 120.582C804.791 120.644 804.926 120.735 805.04 120.849L808.186 124.008C808.413 124.236 808.541 124.546 808.541 124.868C808.541 125.19 808.413 125.499 808.186 125.727L805.393 128.532H795.637V130.972C795.637 131.295 795.508 131.605 795.28 131.834C795.051 132.063 794.741 132.191 794.417 132.191C794.094 132.191 793.784 132.063 793.555 131.834C793.326 131.605 793.198 131.295 793.198 130.972V127.313C793.198 126.666 793.455 126.046 793.912 125.588C794.37 125.131 794.99 124.874 795.637 124.874ZM788.319 130.972V135.85L785.527 138.643C785.3 138.871 785.172 139.18 785.172 139.502C785.172 139.825 785.3 140.134 785.527 140.362L788.673 143.521C788.787 143.635 788.921 143.726 789.07 143.788C789.219 143.85 789.378 143.882 789.539 143.882C789.7 143.882 789.859 143.85 790.008 143.788C790.157 143.726 790.292 143.635 790.405 143.521L795.637 138.289H800.515C800.838 138.289 801.149 138.16 801.377 137.932C801.606 137.703 801.735 137.393 801.735 137.069V135.85H802.954C803.278 135.85 803.588 135.721 803.816 135.493C804.045 135.264 804.174 134.954 804.174 134.63V133.411H805.393C805.717 133.411 806.027 133.282 806.256 133.053C806.484 132.825 806.613 132.515 806.613 132.191V130.972H798.076V132.191C798.076 132.838 797.819 133.458 797.362 133.916C796.904 134.373 796.284 134.63 795.637 134.63H793.198C792.551 134.63 791.93 134.373 791.473 133.916C791.016 133.458 790.759 132.838 790.759 132.191V128.532L788.319 130.972Z" fill="#292E3D"/>
</g>
<rect x="774.904" y="161.46" width="43.9039" height="1.46346" fill="#E0E3EB"/>
<path d="M760.5 188.895C760.315 189.519 760.022 190.041 759.622 190.461C759.222 190.881 758.749 191.193 758.203 191.398C757.656 191.602 757.056 191.705 756.402 191.705C755.446 191.705 754.617 191.505 753.915 191.105C753.222 190.705 752.685 190.134 752.305 189.393C751.934 188.651 751.749 187.763 751.749 186.729C751.749 185.695 751.934 184.807 752.305 184.066C752.685 183.324 753.222 182.753 753.915 182.353C754.617 181.953 755.437 181.753 756.373 181.753C757.037 181.753 757.637 181.846 758.173 182.031C758.71 182.207 759.164 182.48 759.534 182.851C759.915 183.222 760.193 183.69 760.368 184.256L758.539 185.032C758.373 184.446 758.12 184.032 757.778 183.788C757.437 183.534 756.998 183.407 756.461 183.407C755.934 183.407 755.471 183.534 755.071 183.788C754.68 184.041 754.378 184.417 754.163 184.914C753.949 185.402 753.841 186.007 753.841 186.729C753.841 187.441 753.939 188.046 754.134 188.544C754.339 189.041 754.637 189.417 755.027 189.671C755.417 189.924 755.895 190.051 756.461 190.051C756.988 190.051 757.442 189.91 757.822 189.627C758.212 189.344 758.485 188.915 758.642 188.339L760.5 188.895ZM765.353 184.095C766.095 184.095 766.744 184.246 767.3 184.549C767.866 184.851 768.305 185.285 768.617 185.851C768.939 186.417 769.1 187.1 769.1 187.9C769.1 188.69 768.939 189.373 768.617 189.949C768.305 190.515 767.866 190.949 767.3 191.251C766.744 191.554 766.095 191.705 765.353 191.705C764.622 191.705 763.973 191.554 763.407 191.251C762.841 190.949 762.397 190.515 762.075 189.949C761.763 189.373 761.607 188.69 761.607 187.9C761.607 187.1 761.763 186.417 762.075 185.851C762.397 185.285 762.841 184.851 763.407 184.549C763.973 184.246 764.622 184.095 765.353 184.095ZM765.353 185.588C764.983 185.588 764.665 185.675 764.402 185.851C764.148 186.017 763.953 186.271 763.817 186.612C763.68 186.954 763.612 187.383 763.612 187.9C763.612 188.417 763.68 188.846 763.817 189.188C763.953 189.529 764.148 189.788 764.402 189.963C764.665 190.129 764.983 190.212 765.353 190.212C765.714 190.212 766.022 190.129 766.275 189.963C766.539 189.788 766.739 189.529 766.875 189.188C767.012 188.846 767.08 188.417 767.08 187.9C767.08 187.383 767.012 186.954 766.875 186.612C766.739 186.271 766.539 186.017 766.275 185.851C766.022 185.675 765.714 185.588 765.353 185.588ZM770.777 191.559V184.241H772.577L772.694 186.436L772.446 186.202C772.563 185.724 772.748 185.329 773.002 185.017C773.255 184.705 773.563 184.475 773.924 184.329C774.295 184.173 774.699 184.095 775.138 184.095C775.646 184.095 776.095 184.192 776.485 184.388C776.885 184.583 777.197 184.88 777.421 185.28C777.656 185.671 777.773 186.163 777.773 186.758V191.559H775.768V187.329C775.768 186.705 775.646 186.275 775.402 186.041C775.158 185.797 774.841 185.675 774.451 185.675C774.177 185.675 773.909 185.744 773.646 185.88C773.392 186.007 773.182 186.217 773.016 186.51C772.86 186.802 772.782 187.193 772.782 187.68V191.559H770.777ZM782.765 191.705C782.024 191.705 781.346 191.573 780.731 191.31C780.126 191.046 779.633 190.676 779.253 190.198L780.409 189.027C780.643 189.378 780.955 189.666 781.346 189.89C781.736 190.115 782.199 190.227 782.736 190.227C783.116 190.227 783.419 190.173 783.643 190.066C783.877 189.949 783.995 189.768 783.995 189.524C783.995 189.368 783.941 189.237 783.834 189.129C783.726 189.012 783.512 188.919 783.19 188.851L781.902 188.588C781.053 188.412 780.448 188.149 780.087 187.797C779.736 187.437 779.56 186.973 779.56 186.407C779.56 186.007 779.677 185.632 779.911 185.28C780.155 184.929 780.516 184.646 780.994 184.432C781.472 184.207 782.068 184.095 782.78 184.095C783.512 184.095 784.146 184.212 784.682 184.446C785.229 184.671 785.658 185.007 785.97 185.456L784.77 186.627C784.555 186.285 784.273 186.027 783.921 185.851C783.58 185.666 783.219 185.573 782.838 185.573C782.565 185.573 782.331 185.602 782.136 185.661C781.941 185.719 781.794 185.802 781.697 185.91C781.599 186.007 781.551 186.134 781.551 186.29C781.551 186.446 781.619 186.583 781.755 186.7C781.892 186.807 782.141 186.9 782.502 186.978L783.995 187.285C784.716 187.432 785.234 187.68 785.546 188.032C785.858 188.373 786.014 188.788 786.014 189.276C786.014 189.744 785.887 190.163 785.634 190.534C785.39 190.895 785.024 191.183 784.536 191.398C784.058 191.602 783.468 191.705 782.765 191.705ZM790.159 191.705C789.672 191.705 789.232 191.617 788.842 191.442C788.452 191.266 788.14 190.988 787.906 190.607C787.681 190.217 787.569 189.715 787.569 189.1V184.241H789.574V188.617C789.574 189.183 789.691 189.578 789.925 189.802C790.159 190.017 790.496 190.124 790.935 190.124C791.14 190.124 791.34 190.09 791.535 190.022C791.73 189.944 791.901 189.827 792.047 189.671C792.203 189.515 792.325 189.315 792.413 189.071C792.501 188.817 792.545 188.519 792.545 188.178V184.241H794.55V191.559H792.764L792.691 190.285C792.447 190.773 792.111 191.134 791.681 191.368C791.262 191.593 790.754 191.705 790.159 191.705ZM798.635 181.036V189.305C798.635 189.646 798.694 189.885 798.811 190.022C798.928 190.159 799.123 190.227 799.396 190.227C799.562 190.227 799.699 190.217 799.806 190.198C799.913 190.168 800.05 190.129 800.216 190.08L800.04 191.398C799.874 191.495 799.665 191.568 799.411 191.617C799.167 191.676 798.923 191.705 798.679 191.705C797.967 191.705 797.445 191.534 797.113 191.193C796.791 190.841 796.63 190.285 796.63 189.524V181.036H798.635ZM803.666 182.002V189.173C803.666 189.524 803.754 189.783 803.929 189.949C804.115 190.105 804.364 190.183 804.676 190.183C804.92 190.183 805.134 190.149 805.32 190.08C805.505 190.002 805.671 189.9 805.817 189.773L806.139 191.105C805.905 191.29 805.612 191.437 805.261 191.544C804.91 191.651 804.539 191.705 804.149 191.705C803.661 191.705 803.227 191.632 802.846 191.485C802.476 191.339 802.183 191.105 801.968 190.783C801.763 190.461 801.661 190.032 801.661 189.495V182.558L803.666 182.002ZM806.008 184.241V185.734H800.315V184.241H806.008ZM811.606 186.89C811.606 186.471 811.484 186.144 811.24 185.91C811.006 185.675 810.694 185.558 810.304 185.558C809.943 185.558 809.626 185.651 809.353 185.836C809.079 186.022 808.879 186.329 808.753 186.758L807.04 186.232C807.206 185.588 807.567 185.071 808.123 184.68C808.689 184.29 809.445 184.095 810.392 184.095C811.036 184.095 811.597 184.197 812.075 184.402C812.553 184.597 812.923 184.895 813.187 185.295C813.46 185.695 813.597 186.197 813.597 186.802V189.773C813.597 190.144 813.772 190.329 814.123 190.329C814.289 190.329 814.445 190.305 814.592 190.256L814.475 191.5C814.221 191.627 813.904 191.69 813.523 191.69C813.182 191.69 812.875 191.632 812.601 191.515C812.328 191.398 812.114 191.222 811.958 190.988C811.801 190.744 811.723 190.441 811.723 190.08V190.022L812.075 189.963C812.016 190.334 811.855 190.651 811.592 190.915C811.328 191.168 811.006 191.363 810.626 191.5C810.255 191.637 809.87 191.705 809.47 191.705C808.972 191.705 808.543 191.632 808.182 191.485C807.821 191.329 807.543 191.105 807.348 190.812C807.152 190.52 807.055 190.159 807.055 189.729C807.055 189.183 807.231 188.739 807.582 188.398C807.933 188.046 808.435 187.807 809.089 187.68L811.84 187.124L811.826 188.368L810.07 188.719C809.738 188.788 809.484 188.88 809.309 188.998C809.143 189.105 809.06 189.285 809.06 189.539C809.06 189.783 809.148 189.968 809.323 190.095C809.509 190.222 809.728 190.285 809.982 190.285C810.187 190.285 810.387 190.261 810.582 190.212C810.777 190.163 810.953 190.085 811.109 189.978C811.265 189.871 811.387 189.724 811.475 189.539C811.562 189.354 811.606 189.129 811.606 188.866V186.89ZM818.143 182.002V189.173C818.143 189.524 818.231 189.783 818.407 189.949C818.592 190.105 818.841 190.183 819.153 190.183C819.397 190.183 819.612 190.149 819.797 190.08C819.983 190.002 820.148 189.9 820.295 189.773L820.617 191.105C820.383 191.29 820.09 191.437 819.739 191.544C819.387 191.651 819.017 191.705 818.626 191.705C818.139 191.705 817.704 191.632 817.324 191.485C816.953 191.339 816.66 191.105 816.446 190.783C816.241 190.461 816.138 190.032 816.138 189.495V182.558L818.143 182.002ZM820.485 184.241V185.734H814.792V184.241H820.485ZM822.851 183.188C822.432 183.188 822.119 183.1 821.915 182.924C821.71 182.739 821.607 182.47 821.607 182.119C821.607 181.758 821.71 181.49 821.915 181.314C822.119 181.129 822.432 181.036 822.851 181.036C823.271 181.036 823.583 181.129 823.788 181.314C823.993 181.49 824.095 181.758 824.095 182.119C824.095 182.47 823.993 182.739 823.788 182.924C823.583 183.1 823.271 183.188 822.851 183.188ZM823.846 184.241V191.559H821.841V184.241H823.846ZM829.308 184.095C830.05 184.095 830.699 184.246 831.255 184.549C831.821 184.851 832.26 185.285 832.572 185.851C832.894 186.417 833.055 187.1 833.055 187.9C833.055 188.69 832.894 189.373 832.572 189.949C832.26 190.515 831.821 190.949 831.255 191.251C830.699 191.554 830.05 191.705 829.308 191.705C828.577 191.705 827.928 191.554 827.362 191.251C826.796 190.949 826.352 190.515 826.03 189.949C825.718 189.373 825.562 188.69 825.562 187.9C825.562 187.1 825.718 186.417 826.03 185.851C826.352 185.285 826.796 184.851 827.362 184.549C827.928 184.246 828.577 184.095 829.308 184.095ZM829.308 185.588C828.938 185.588 828.621 185.675 828.357 185.851C828.103 186.017 827.908 186.271 827.772 186.612C827.635 186.954 827.567 187.383 827.567 187.9C827.567 188.417 827.635 188.846 827.772 189.188C827.908 189.529 828.103 189.788 828.357 189.963C828.621 190.129 828.938 190.212 829.308 190.212C829.669 190.212 829.977 190.129 830.23 189.963C830.494 189.788 830.694 189.529 830.83 189.188C830.967 188.846 831.035 188.417 831.035 187.9C831.035 187.383 830.967 186.954 830.83 186.612C830.694 186.271 830.494 186.017 830.23 185.851C829.977 185.675 829.669 185.588 829.308 185.588ZM834.732 191.559V184.241H836.533L836.65 186.436L836.401 186.202C836.518 185.724 836.703 185.329 836.957 185.017C837.211 184.705 837.518 184.475 837.879 184.329C838.25 184.173 838.655 184.095 839.094 184.095C839.601 184.095 840.05 184.192 840.44 184.388C840.84 184.583 841.152 184.88 841.377 185.28C841.611 185.671 841.728 186.163 841.728 186.758V191.559H839.723V187.329C839.723 186.705 839.601 186.275 839.357 186.041C839.113 185.797 838.796 185.675 838.406 185.675C838.133 185.675 837.864 185.744 837.601 185.88C837.347 186.007 837.137 186.217 836.972 186.51C836.815 186.802 836.737 187.193 836.737 187.68V191.559H834.732Z" fill="#2947A9"/>
</g>
<g filter="url(#filter3_d_102_395)">
<path d="M158.054 260.329C158.054 258.713 159.365 257.402 160.981 257.402H353.427C355.043 257.402 356.354 258.713 356.354 260.329V386.919C356.354 388.535 355.043 389.846 353.427 389.846H160.981C159.365 389.846 158.054 388.535 158.054 386.919V260.329Z" fill="#2947A9"/>
<g clip-path="url(#clip3_102_395)">
<rect x="242.569" y="297.319" width="17.0737" height="17.0738" fill="#7595FD"/>
<path d="M264.521 304.636H262.082V303.416H252.326V304.636H249.887V303.416H245.008V309.514H269.399V303.416H264.521V304.636ZM266.96 294.879H263.302V292.44C263.302 291.099 262.204 290.001 260.862 290.001H253.545C252.204 290.001 251.106 291.099 251.106 292.44V294.879H247.447C246.106 294.879 245.008 295.977 245.008 297.319V302.197H249.887V299.758H252.326V302.197H262.082V299.758H264.521V302.197H269.399V297.319C269.399 295.977 268.302 294.879 266.96 294.879ZM260.862 294.879H253.545V292.44H260.862V294.879Z" fill="white"/>
</g>
<rect x="235.252" y="329.027" width="43.9039" height="1.46346" fill="#E0E3EB"/>
<path d="M207.212 349.466C208.305 349.466 209.164 349.73 209.788 350.257C210.412 350.783 210.725 351.491 210.725 352.379C210.725 353.325 210.412 354.052 209.788 354.559C209.164 355.057 208.31 355.306 207.227 355.306L207.022 355.423H204.944V359.125H202.954V349.466H207.212ZM206.978 353.886C207.544 353.886 207.964 353.774 208.237 353.549C208.52 353.315 208.661 352.959 208.661 352.481C208.661 352.003 208.52 351.652 208.237 351.427C207.964 351.193 207.544 351.076 206.978 351.076H204.944V353.886H206.978ZM208.164 354.31L211.295 359.125H209.027L206.437 354.896L208.164 354.31ZM215.948 359.272C215.177 359.272 214.504 359.12 213.929 358.818C213.363 358.515 212.924 358.081 212.611 357.515C212.299 356.95 212.143 356.267 212.143 355.467C212.143 354.667 212.299 353.984 212.611 353.418C212.924 352.852 213.358 352.418 213.914 352.115C214.48 351.813 215.124 351.662 215.846 351.662C216.587 351.662 217.216 351.813 217.734 352.115C218.251 352.408 218.646 352.813 218.919 353.33C219.192 353.837 219.329 354.418 219.329 355.071C219.329 355.267 219.324 355.452 219.314 355.628C219.304 355.803 219.29 355.959 219.27 356.096H213.431V354.706H218.392L217.426 355.057C217.426 354.442 217.285 353.969 217.002 353.637C216.729 353.306 216.338 353.14 215.831 353.14C215.46 353.14 215.138 353.227 214.865 353.403C214.602 353.579 214.402 353.842 214.265 354.193C214.129 354.535 214.06 354.969 214.06 355.496C214.06 356.013 214.133 356.442 214.28 356.784C214.436 357.115 214.651 357.364 214.924 357.53C215.207 357.696 215.543 357.779 215.933 357.779C216.363 357.779 216.709 357.696 216.973 357.53C217.236 357.364 217.441 357.135 217.587 356.842L219.182 357.457C219.026 357.837 218.787 358.164 218.465 358.437C218.153 358.711 217.777 358.92 217.338 359.067C216.909 359.203 216.446 359.272 215.948 359.272ZM221.028 362.199V351.808H222.828L222.96 354.135L222.711 353.871C222.799 353.442 222.96 353.062 223.194 352.73C223.438 352.398 223.745 352.14 224.116 351.954C224.486 351.759 224.901 351.662 225.36 351.662C225.955 351.662 226.487 351.813 226.955 352.115C227.423 352.418 227.789 352.852 228.052 353.418C228.326 353.974 228.462 354.652 228.462 355.452C228.462 356.252 228.326 356.94 228.052 357.515C227.779 358.081 227.404 358.515 226.926 358.818C226.457 359.12 225.921 359.272 225.316 359.272C224.672 359.272 224.135 359.091 223.706 358.73C223.286 358.369 222.999 357.915 222.843 357.369L223.033 357.062V362.199H221.028ZM224.73 357.735C225.267 357.735 225.687 357.545 225.989 357.164C226.301 356.774 226.457 356.208 226.457 355.467C226.457 354.725 226.306 354.164 226.004 353.784C225.711 353.393 225.296 353.198 224.76 353.198C224.418 353.198 224.116 353.291 223.852 353.476C223.599 353.652 223.399 353.91 223.252 354.252C223.106 354.584 223.033 354.989 223.033 355.467C223.033 355.935 223.101 356.34 223.238 356.681C223.374 357.023 223.569 357.286 223.823 357.472C224.086 357.647 224.389 357.735 224.73 357.735ZM234.331 354.457C234.331 354.037 234.209 353.71 233.965 353.476C233.731 353.242 233.419 353.125 233.029 353.125C232.668 353.125 232.35 353.218 232.077 353.403C231.804 353.588 231.604 353.896 231.477 354.325L229.765 353.798C229.931 353.154 230.292 352.637 230.848 352.247C231.414 351.857 232.17 351.662 233.116 351.662C233.76 351.662 234.321 351.764 234.799 351.969C235.277 352.164 235.648 352.462 235.912 352.862C236.185 353.262 236.321 353.764 236.321 354.369V357.34C236.321 357.711 236.497 357.896 236.848 357.896C237.014 357.896 237.17 357.872 237.317 357.823L237.199 359.067C236.946 359.194 236.629 359.257 236.248 359.257C235.907 359.257 235.599 359.198 235.326 359.081C235.053 358.964 234.838 358.789 234.682 358.554C234.526 358.311 234.448 358.008 234.448 357.647V357.589L234.799 357.53C234.741 357.901 234.58 358.218 234.316 358.481C234.053 358.735 233.731 358.93 233.351 359.067C232.98 359.203 232.594 359.272 232.194 359.272C231.697 359.272 231.268 359.198 230.907 359.052C230.546 358.896 230.267 358.672 230.072 358.379C229.877 358.086 229.78 357.725 229.78 357.296C229.78 356.75 229.955 356.306 230.307 355.964C230.658 355.613 231.16 355.374 231.814 355.247L234.565 354.691L234.551 355.935L232.794 356.286C232.463 356.354 232.209 356.447 232.033 356.564C231.868 356.672 231.785 356.852 231.785 357.106C231.785 357.35 231.872 357.535 232.048 357.662C232.233 357.789 232.453 357.852 232.707 357.852C232.911 357.852 233.111 357.828 233.307 357.779C233.502 357.73 233.677 357.652 233.833 357.545C233.99 357.437 234.112 357.291 234.199 357.106C234.287 356.92 234.331 356.696 234.331 356.432V354.457ZM239.573 350.754C239.154 350.754 238.842 350.666 238.637 350.491C238.432 350.305 238.33 350.037 238.33 349.686C238.33 349.325 238.432 349.057 238.637 348.881C238.842 348.696 239.154 348.603 239.573 348.603C239.993 348.603 240.305 348.696 240.51 348.881C240.715 349.057 240.817 349.325 240.817 349.686C240.817 350.037 240.715 350.305 240.51 350.491C240.305 350.666 239.993 350.754 239.573 350.754ZM240.569 351.808V359.125H238.564V351.808H240.569ZM242.694 359.125V351.808H244.435L244.567 353.242C244.762 352.735 245.045 352.345 245.416 352.071C245.796 351.798 246.27 351.662 246.836 351.662C247.001 351.662 247.153 351.676 247.289 351.705C247.426 351.735 247.538 351.774 247.626 351.823L247.392 353.506C247.294 353.467 247.172 353.437 247.026 353.418C246.889 353.398 246.709 353.388 246.484 353.388C246.192 353.388 245.909 353.462 245.636 353.608C245.362 353.745 245.138 353.959 244.962 354.252C244.787 354.535 244.699 354.896 244.699 355.335V359.125H242.694ZM256.802 349.32C257.68 349.32 258.45 349.471 259.114 349.774C259.777 350.076 260.343 350.525 260.811 351.12L259.685 352.423C259.285 351.915 258.845 351.544 258.367 351.31C257.899 351.066 257.353 350.944 256.728 350.944C256.319 350.944 255.977 350.998 255.704 351.105C255.44 351.213 255.245 351.354 255.119 351.53C255.001 351.705 254.943 351.901 254.943 352.115C254.943 352.379 255.045 352.603 255.25 352.788C255.455 352.964 255.806 353.11 256.304 353.227L258.104 353.637C259.06 353.852 259.743 354.174 260.153 354.603C260.572 355.023 260.782 355.569 260.782 356.242C260.782 356.876 260.616 357.423 260.285 357.881C259.953 358.33 259.489 358.676 258.894 358.92C258.299 359.155 257.616 359.272 256.845 359.272C256.172 359.272 255.553 359.194 254.987 359.037C254.431 358.872 253.933 358.647 253.494 358.364C253.055 358.081 252.689 357.754 252.396 357.384L253.538 356.023C253.762 356.335 254.04 356.613 254.372 356.857C254.704 357.101 255.08 357.296 255.499 357.442C255.928 357.579 256.377 357.647 256.845 357.647C257.245 357.647 257.582 357.603 257.855 357.515C258.138 357.418 258.348 357.286 258.485 357.12C258.631 356.945 258.704 356.735 258.704 356.491C258.704 356.237 258.616 356.023 258.441 355.847C258.275 355.662 257.963 355.52 257.504 355.423L255.543 354.984C254.977 354.847 254.489 354.671 254.079 354.457C253.679 354.232 253.372 353.949 253.157 353.608C252.953 353.257 252.85 352.842 252.85 352.364C252.85 351.788 253.006 351.271 253.318 350.813C253.631 350.354 254.079 349.993 254.665 349.73C255.26 349.457 255.972 349.32 256.802 349.32ZM265.883 359.272C265.112 359.272 264.439 359.12 263.864 358.818C263.298 358.515 262.859 358.081 262.546 357.515C262.234 356.95 262.078 356.267 262.078 355.467C262.078 354.667 262.234 353.984 262.546 353.418C262.859 352.852 263.293 352.418 263.849 352.115C264.415 351.813 265.059 351.662 265.781 351.662C266.522 351.662 267.151 351.813 267.669 352.115C268.186 352.408 268.581 352.813 268.854 353.33C269.127 353.837 269.264 354.418 269.264 355.071C269.264 355.267 269.259 355.452 269.249 355.628C269.239 355.803 269.225 355.959 269.205 356.096H263.366V354.706H268.327L267.361 355.057C267.361 354.442 267.22 353.969 266.937 353.637C266.664 353.306 266.273 353.14 265.766 353.14C265.395 353.14 265.073 353.227 264.8 353.403C264.537 353.579 264.337 353.842 264.2 354.193C264.064 354.535 263.995 354.969 263.995 355.496C263.995 356.013 264.068 356.442 264.215 356.784C264.371 357.115 264.586 357.364 264.859 357.53C265.142 357.696 265.478 357.779 265.868 357.779C266.298 357.779 266.644 357.696 266.908 357.53C267.171 357.364 267.376 357.135 267.522 356.842L269.117 357.457C268.961 357.837 268.722 358.164 268.4 358.437C268.088 358.711 267.712 358.92 267.273 359.067C266.844 359.203 266.381 359.272 265.883 359.272ZM270.963 359.125V351.808H272.704L272.836 353.242C273.031 352.735 273.314 352.345 273.685 352.071C274.065 351.798 274.539 351.662 275.104 351.662C275.27 351.662 275.422 351.676 275.558 351.705C275.695 351.735 275.807 351.774 275.895 351.823L275.661 353.506C275.563 353.467 275.441 353.437 275.295 353.418C275.158 353.398 274.978 353.388 274.753 353.388C274.461 353.388 274.178 353.462 273.904 353.608C273.631 353.745 273.407 353.959 273.231 354.252C273.056 354.535 272.968 354.896 272.968 355.335V359.125H270.963ZM281.937 351.808H284.015L281.235 359.125H278.922L276.142 351.808H278.278L280.093 357.589L281.937 351.808ZM286.136 350.754C285.716 350.754 285.404 350.666 285.199 350.491C284.994 350.305 284.892 350.037 284.892 349.686C284.892 349.325 284.994 349.057 285.199 348.881C285.404 348.696 285.716 348.603 286.136 348.603C286.555 348.603 286.867 348.696 287.072 348.881C287.277 349.057 287.38 349.325 287.38 349.686C287.38 350.037 287.277 350.305 287.072 350.491C286.867 350.666 286.555 350.754 286.136 350.754ZM287.131 351.808V359.125H285.126V351.808H287.131ZM292.578 351.662C293.232 351.662 293.783 351.759 294.232 351.954C294.69 352.14 295.056 352.398 295.33 352.73C295.612 353.052 295.812 353.413 295.93 353.813L294.056 354.486C293.959 354.047 293.793 353.715 293.559 353.491C293.325 353.267 293.007 353.154 292.607 353.154C292.237 353.154 291.92 353.242 291.656 353.418C291.393 353.584 291.193 353.842 291.056 354.193C290.92 354.535 290.851 354.964 290.851 355.481C290.851 355.998 290.92 356.428 291.056 356.769C291.203 357.111 291.407 357.364 291.671 357.53C291.944 357.696 292.261 357.779 292.622 357.779C292.915 357.779 293.164 357.73 293.368 357.633C293.573 357.525 293.739 357.374 293.866 357.179C294.003 356.984 294.095 356.75 294.144 356.476L295.959 357.062C295.851 357.501 295.651 357.886 295.359 358.218C295.066 358.55 294.69 358.808 294.232 358.994C293.773 359.179 293.242 359.272 292.637 359.272C291.885 359.272 291.222 359.12 290.646 358.818C290.071 358.515 289.627 358.081 289.315 357.515C289.002 356.95 288.846 356.267 288.846 355.467C288.846 354.667 289.002 353.984 289.315 353.418C289.627 352.852 290.066 352.418 290.632 352.115C291.198 351.813 291.846 351.662 292.578 351.662ZM300.912 359.272C300.141 359.272 299.468 359.12 298.892 358.818C298.326 358.515 297.887 358.081 297.575 357.515C297.263 356.95 297.107 356.267 297.107 355.467C297.107 354.667 297.263 353.984 297.575 353.418C297.887 352.852 298.322 352.418 298.878 352.115C299.444 351.813 300.088 351.662 300.809 351.662C301.551 351.662 302.18 351.813 302.697 352.115C303.214 352.408 303.61 352.813 303.883 353.33C304.156 353.837 304.293 354.418 304.293 355.071C304.293 355.267 304.288 355.452 304.278 355.628C304.268 355.803 304.254 355.959 304.234 356.096H298.395V354.706H303.356L302.39 355.057C302.39 354.442 302.249 353.969 301.966 353.637C301.692 353.306 301.302 353.14 300.795 353.14C300.424 353.14 300.102 353.227 299.829 353.403C299.566 353.579 299.366 353.842 299.229 354.193C299.092 354.535 299.024 354.969 299.024 355.496C299.024 356.013 299.097 356.442 299.244 356.784C299.4 357.115 299.614 357.364 299.888 357.53C300.17 357.696 300.507 357.779 300.897 357.779C301.327 357.779 301.673 357.696 301.936 357.53C302.2 357.364 302.405 357.135 302.551 356.842L304.146 357.457C303.99 357.837 303.751 358.164 303.429 358.437C303.117 358.711 302.741 358.92 302.302 359.067C301.873 359.203 301.41 359.272 300.912 359.272ZM308.919 359.272C308.177 359.272 307.499 359.14 306.884 358.876C306.279 358.613 305.787 358.242 305.406 357.764L306.562 356.593C306.797 356.945 307.109 357.232 307.499 357.457C307.889 357.681 308.353 357.793 308.889 357.793C309.27 357.793 309.572 357.74 309.797 357.633C310.031 357.515 310.148 357.335 310.148 357.091C310.148 356.935 310.094 356.803 309.987 356.696C309.88 356.579 309.665 356.486 309.343 356.418L308.055 356.154C307.206 355.979 306.601 355.715 306.24 355.364C305.889 355.003 305.714 354.54 305.714 353.974C305.714 353.574 305.831 353.198 306.065 352.847C306.309 352.496 306.67 352.213 307.148 351.998C307.626 351.774 308.221 351.662 308.933 351.662C309.665 351.662 310.299 351.779 310.836 352.013C311.382 352.237 311.811 352.574 312.124 353.023L310.924 354.193C310.709 353.852 310.426 353.593 310.075 353.418C309.733 353.232 309.372 353.14 308.992 353.14C308.719 353.14 308.484 353.169 308.289 353.227C308.094 353.286 307.948 353.369 307.85 353.476C307.753 353.574 307.704 353.701 307.704 353.857C307.704 354.013 307.772 354.149 307.909 354.267C308.045 354.374 308.294 354.467 308.655 354.545L310.148 354.852C310.87 354.998 311.387 355.247 311.699 355.598C312.011 355.94 312.167 356.354 312.167 356.842C312.167 357.311 312.041 357.73 311.787 358.101C311.543 358.462 311.177 358.75 310.689 358.964C310.211 359.169 309.621 359.272 308.919 359.272Z" fill="white"/>
</g>
<g filter="url(#filter4_d_102_395)">
<path d="M428.063 260.329C428.063 258.713 429.374 257.402 430.99 257.402H623.436C625.052 257.402 626.363 258.713 626.363 260.329V386.919C626.363 388.535 625.052 389.846 623.436 389.846H430.99C429.374 389.846 428.063 388.535 428.063 386.919V260.329Z" fill="white"/>
<g clip-path="url(#clip4_102_395)">
<rect x="512.578" y="297.319" width="17.0737" height="17.0738" fill="#7595FD"/>
<path d="M520.335 308.026L520.64 310.734L522.615 308.856L525.994 299.587C525.164 299.38 524.432 298.965 523.835 298.392L520.335 308.026ZM530.591 298.392C529.994 298.965 529.25 299.38 528.433 299.587L531.811 308.856L533.786 310.734L534.104 308.026L530.591 298.392V298.392ZM530.799 295.611C531.164 293.709 530.067 292.026 528.433 291.44V290.001C528.433 289.331 527.884 288.782 527.213 288.782C526.542 288.782 525.994 289.331 525.994 290.001V291.44C524.579 291.953 523.554 293.294 523.554 294.88C523.554 297.123 525.579 298.904 527.896 298.477C529.335 298.209 530.518 297.05 530.799 295.611V295.611ZM527.213 296.099C526.542 296.099 525.994 295.55 525.994 294.88C525.994 294.209 526.542 293.66 527.213 293.66C527.884 293.66 528.433 294.209 528.433 294.88C528.433 295.55 527.884 296.099 527.213 296.099Z" fill="#292E3D"/>
</g>
<rect x="505.261" y="329.027" width="43.9039" height="1.46346" fill="#E0E3EB"/>
<path d="M491.774 359.125H489.682L488.877 356.769H485.174L484.369 359.125H482.306L485.833 349.466H488.247L491.774 359.125ZM485.628 355.276H488.423L487.018 351.062L485.628 355.276ZM493.002 359.125V351.808H494.744L494.875 353.242C495.07 352.735 495.353 352.345 495.724 352.071C496.105 351.798 496.578 351.662 497.144 351.662C497.31 351.662 497.461 351.676 497.597 351.705C497.734 351.735 497.846 351.774 497.934 351.823L497.7 353.506C497.602 353.467 497.48 353.437 497.334 353.418C497.197 353.398 497.017 353.388 496.793 353.388C496.5 353.388 496.217 353.462 495.944 353.608C495.671 353.745 495.446 353.959 495.271 354.252C495.095 354.535 495.007 354.896 495.007 355.335V359.125H493.002ZM502.355 351.662C503.009 351.662 503.56 351.759 504.009 351.954C504.468 352.14 504.833 352.398 505.107 352.73C505.39 353.052 505.59 353.413 505.707 353.813L503.833 354.486C503.736 354.047 503.57 353.715 503.336 353.491C503.102 353.267 502.785 353.154 502.385 353.154C502.014 353.154 501.697 353.242 501.433 353.418C501.17 353.584 500.97 353.842 500.833 354.193C500.697 354.535 500.628 354.964 500.628 355.481C500.628 355.998 500.697 356.428 500.833 356.769C500.98 357.111 501.185 357.364 501.448 357.53C501.721 357.696 502.038 357.779 502.399 357.779C502.692 357.779 502.941 357.73 503.146 357.633C503.35 357.525 503.516 357.374 503.643 357.179C503.78 356.984 503.872 356.75 503.921 356.476L505.736 357.062C505.629 357.501 505.429 357.886 505.136 358.218C504.843 358.55 504.468 358.808 504.009 358.994C503.55 359.179 503.019 359.272 502.414 359.272C501.663 359.272 500.999 359.12 500.424 358.818C499.848 358.515 499.404 358.081 499.092 357.515C498.78 356.95 498.623 356.267 498.623 355.467C498.623 354.667 498.78 353.984 499.092 353.418C499.404 352.852 499.843 352.418 500.409 352.115C500.975 351.813 501.624 351.662 502.355 351.662ZM507.294 359.125V348.603H509.299V353.052C509.533 352.584 509.855 352.237 510.265 352.013C510.674 351.779 511.138 351.662 511.655 351.662C512.162 351.662 512.611 351.759 513.001 351.954C513.401 352.149 513.714 352.447 513.938 352.847C514.172 353.237 514.289 353.73 514.289 354.325V359.125H512.284V354.91C512.284 354.276 512.162 353.842 511.918 353.608C511.674 353.364 511.362 353.242 510.982 353.242C510.699 353.242 510.426 353.31 510.162 353.447C509.909 353.574 509.699 353.788 509.533 354.091C509.377 354.384 509.299 354.774 509.299 355.262V359.125H507.294ZM517.364 350.754C516.945 350.754 516.633 350.666 516.428 350.491C516.223 350.305 516.121 350.037 516.121 349.686C516.121 349.325 516.223 349.057 516.428 348.881C516.633 348.696 516.945 348.603 517.364 348.603C517.784 348.603 518.096 348.696 518.301 348.881C518.506 349.057 518.608 349.325 518.608 349.686C518.608 350.037 518.506 350.305 518.301 350.491C518.096 350.666 517.784 350.754 517.364 350.754ZM518.36 351.808V359.125H516.355V351.808H518.36ZM523.075 349.569V356.74C523.075 357.091 523.163 357.35 523.339 357.515C523.524 357.672 523.773 357.75 524.085 357.75C524.329 357.75 524.544 357.715 524.729 357.647C524.914 357.569 525.08 357.467 525.227 357.34L525.549 358.672C525.314 358.857 525.022 359.003 524.67 359.111C524.319 359.218 523.949 359.272 523.558 359.272C523.07 359.272 522.636 359.198 522.256 359.052C521.885 358.906 521.592 358.672 521.378 358.35C521.173 358.028 521.07 357.598 521.07 357.062V350.125L523.075 349.569ZM525.417 351.808V353.301H519.724V351.808H525.417ZM530.169 359.272C529.398 359.272 528.725 359.12 528.149 358.818C527.583 358.515 527.144 358.081 526.832 357.515C526.52 356.95 526.364 356.267 526.364 355.467C526.364 354.667 526.52 353.984 526.832 353.418C527.144 352.852 527.578 352.418 528.134 352.115C528.7 351.813 529.344 351.662 530.066 351.662C530.808 351.662 531.437 351.813 531.954 352.115C532.471 352.408 532.866 352.813 533.139 353.33C533.413 353.837 533.549 354.418 533.549 355.071C533.549 355.267 533.544 355.452 533.534 355.628C533.525 355.803 533.51 355.959 533.491 356.096H527.651V354.706H532.613L531.647 355.057C531.647 354.442 531.505 353.969 531.222 353.637C530.949 353.306 530.559 353.14 530.051 353.14C529.681 353.14 529.359 353.227 529.086 353.403C528.822 353.579 528.622 353.842 528.486 354.193C528.349 354.535 528.281 354.969 528.281 355.496C528.281 356.013 528.354 356.442 528.5 356.784C528.656 357.115 528.871 357.364 529.144 357.53C529.427 357.696 529.764 357.779 530.154 357.779C530.583 357.779 530.93 357.696 531.193 357.53C531.456 357.364 531.661 357.135 531.808 356.842L533.403 357.457C533.247 357.837 533.008 358.164 532.686 358.437C532.373 358.711 531.998 358.92 531.559 359.067C531.13 359.203 530.666 359.272 530.169 359.272ZM538.57 351.662C539.224 351.662 539.775 351.759 540.224 351.954C540.683 352.14 541.048 352.398 541.322 352.73C541.605 353.052 541.805 353.413 541.922 353.813L540.048 354.486C539.951 354.047 539.785 353.715 539.551 353.491C539.317 353.267 539 353.154 538.6 353.154C538.229 353.154 537.912 353.242 537.648 353.418C537.385 353.584 537.185 353.842 537.048 354.193C536.912 354.535 536.843 354.964 536.843 355.481C536.843 355.998 536.912 356.428 537.048 356.769C537.195 357.111 537.4 357.364 537.663 357.53C537.936 357.696 538.253 357.779 538.614 357.779C538.907 357.779 539.156 357.73 539.361 357.633C539.565 357.525 539.731 357.374 539.858 357.179C539.995 356.984 540.087 356.75 540.136 356.476L541.951 357.062C541.844 357.501 541.644 357.886 541.351 358.218C541.058 358.55 540.683 358.808 540.224 358.994C539.765 359.179 539.234 359.272 538.629 359.272C537.878 359.272 537.214 359.12 536.639 358.818C536.063 358.515 535.619 358.081 535.307 357.515C534.995 356.95 534.838 356.267 534.838 355.467C534.838 354.667 534.995 353.984 535.307 353.418C535.619 352.852 536.058 352.418 536.624 352.115C537.19 351.813 537.839 351.662 538.57 351.662ZM546.099 349.569V356.74C546.099 357.091 546.187 357.35 546.363 357.515C546.548 357.672 546.797 357.75 547.109 357.75C547.353 357.75 547.567 357.715 547.753 357.647C547.938 357.569 548.104 357.467 548.25 357.34L548.572 358.672C548.338 358.857 548.046 359.003 547.694 359.111C547.343 359.218 546.972 359.272 546.582 359.272C546.094 359.272 545.66 359.198 545.28 359.052C544.909 358.906 544.616 358.672 544.402 358.35C544.197 358.028 544.094 357.598 544.094 357.062V350.125L546.099 349.569ZM548.441 351.808V353.301H542.748V351.808H548.441ZM552.344 359.272C551.856 359.272 551.417 359.184 551.026 359.008C550.636 358.833 550.324 358.554 550.09 358.174C549.865 357.784 549.753 357.281 549.753 356.667V351.808H551.758V356.184C551.758 356.75 551.875 357.145 552.109 357.369C552.344 357.584 552.68 357.691 553.119 357.691C553.324 357.691 553.524 357.657 553.719 357.589C553.914 357.511 554.085 357.393 554.231 357.237C554.388 357.081 554.509 356.881 554.597 356.637C554.685 356.384 554.729 356.086 554.729 355.745V351.808H556.734V359.125H554.949L554.875 357.852C554.631 358.34 554.295 358.701 553.866 358.935C553.446 359.159 552.939 359.272 552.344 359.272ZM558.844 359.125V351.808H560.585L560.717 353.242C560.912 352.735 561.195 352.345 561.566 352.071C561.946 351.798 562.419 351.662 562.985 351.662C563.151 351.662 563.302 351.676 563.439 351.705C563.576 351.735 563.688 351.774 563.776 351.823L563.541 353.506C563.444 353.467 563.322 353.437 563.176 353.418C563.039 353.398 562.859 353.388 562.634 353.388C562.341 353.388 562.058 353.462 561.785 353.608C561.512 353.745 561.288 353.959 561.112 354.252C560.936 354.535 560.849 354.896 560.849 355.335V359.125H558.844ZM568.27 359.272C567.499 359.272 566.826 359.12 566.25 358.818C565.685 358.515 565.246 358.081 564.933 357.515C564.621 356.95 564.465 356.267 564.465 355.467C564.465 354.667 564.621 353.984 564.933 353.418C565.246 352.852 565.68 352.418 566.236 352.115C566.802 351.813 567.446 351.662 568.168 351.662C568.909 351.662 569.538 351.813 570.055 352.115C570.573 352.408 570.968 352.813 571.241 353.33C571.514 353.837 571.651 354.418 571.651 355.071C571.651 355.267 571.646 355.452 571.636 355.628C571.626 355.803 571.612 355.959 571.592 356.096H565.753V354.706H570.714L569.748 355.057C569.748 354.442 569.607 353.969 569.324 353.637C569.051 353.306 568.66 353.14 568.153 353.14C567.782 353.14 567.46 353.227 567.187 353.403C566.924 353.579 566.724 353.842 566.587 354.193C566.45 354.535 566.382 354.969 566.382 355.496C566.382 356.013 566.455 356.442 566.602 356.784C566.758 357.115 566.972 357.364 567.246 357.53C567.529 357.696 567.865 357.779 568.255 357.779C568.685 357.779 569.031 357.696 569.294 357.53C569.558 357.364 569.763 357.135 569.909 356.842L571.504 357.457C571.348 357.837 571.109 358.164 570.787 358.437C570.475 358.711 570.099 358.92 569.66 359.067C569.231 359.203 568.768 359.272 568.27 359.272Z" fill="#2947A9"/>
</g>
<g filter="url(#filter5_d_102_395)">
<path d="M698.073 260.329C698.073 258.713 699.383 257.402 700.999 257.402H892.713C894.33 257.402 895.64 258.713 895.64 260.329V386.919C895.64 388.535 894.33 389.846 892.713 389.846H700.999C699.383 389.846 698.073 388.535 698.073 386.919V260.329Z" fill="#2947A9"/>
<g clip-path="url(#clip5_102_395)">
<rect x="782.222" y="297.319" width="17.0737" height="17.0738" fill="#7595FD"/>
<path d="M807.832 302.197C807.832 301.526 807.284 300.977 806.613 300.977H804.174V303.416H806.613C807.284 303.416 807.832 302.868 807.832 302.197ZM806.613 305.856H804.174V308.295H806.613C807.284 308.295 807.832 307.746 807.832 307.075C807.832 306.404 807.284 305.856 806.613 305.856ZM796.856 302.197H794.417V307.075H796.856C796.856 308.417 797.954 309.514 799.295 309.514H802.954V299.758H799.295C797.954 299.758 796.856 300.855 796.856 302.197Z" fill="white"/>
<path d="M788.319 300.977C788.319 299.636 789.417 298.538 790.759 298.538H792.588C794.942 298.538 796.856 296.623 796.856 294.27C796.856 291.916 794.942 290.001 792.588 290.001H788.319C787.649 290.001 787.1 290.55 787.1 291.221C787.1 291.892 787.649 292.44 788.319 292.44H792.588C793.6 292.44 794.417 293.257 794.417 294.27C794.417 295.282 793.6 296.099 792.588 296.099H790.759C788.063 296.099 785.88 298.282 785.88 300.977C785.88 303.672 788.063 305.855 790.759 305.855H793.198V303.416H790.759C789.417 303.416 788.319 302.319 788.319 300.977Z" fill="white"/>
</g>
<rect x="774.904" y="329.027" width="43.9039" height="1.46346" fill="#E0E3EB"/>
<path d="M770.353 359.125V349.466H777.598V351.091H772.373V353.491H776.485V355.042H772.373V357.501H777.802V359.125H770.353ZM781.385 348.603V356.872C781.385 357.213 781.444 357.452 781.561 357.589C781.678 357.725 781.873 357.793 782.146 357.793C782.312 357.793 782.449 357.784 782.556 357.764C782.663 357.735 782.8 357.696 782.966 357.647L782.79 358.964C782.624 359.062 782.414 359.135 782.161 359.184C781.917 359.242 781.673 359.272 781.429 359.272C780.717 359.272 780.195 359.101 779.863 358.759C779.541 358.408 779.38 357.852 779.38 357.091V348.603H781.385ZM787.478 359.272C786.707 359.272 786.034 359.12 785.459 358.818C784.893 358.515 784.454 358.081 784.141 357.515C783.829 356.95 783.673 356.267 783.673 355.467C783.673 354.667 783.829 353.984 784.141 353.418C784.454 352.852 784.888 352.418 785.444 352.115C786.01 351.813 786.654 351.662 787.376 351.662C788.117 351.662 788.746 351.813 789.264 352.115C789.781 352.408 790.176 352.813 790.449 353.33C790.722 353.837 790.859 354.418 790.859 355.071C790.859 355.267 790.854 355.452 790.844 355.628C790.834 355.803 790.82 355.959 790.8 356.096H784.961V354.706H789.922L788.956 355.057C788.956 354.442 788.815 353.969 788.532 353.637C788.259 353.306 787.868 353.14 787.361 353.14C786.99 353.14 786.668 353.227 786.395 353.403C786.132 353.579 785.932 353.842 785.795 354.193C785.659 354.535 785.59 354.969 785.59 355.496C785.59 356.013 785.663 356.442 785.81 356.784C785.966 357.115 786.181 357.364 786.454 357.53C786.737 357.696 787.073 357.779 787.463 357.779C787.893 357.779 788.239 357.696 788.503 357.53C788.766 357.364 788.971 357.135 789.117 356.842L790.712 357.457C790.556 357.837 790.317 358.164 789.995 358.437C789.683 358.711 789.307 358.92 788.868 359.067C788.439 359.203 787.976 359.272 787.478 359.272ZM795.88 351.662C796.534 351.662 797.085 351.759 797.534 351.954C797.992 352.14 798.358 352.398 798.631 352.73C798.914 353.052 799.114 353.413 799.231 353.813L797.358 354.486C797.26 354.047 797.095 353.715 796.86 353.491C796.626 353.267 796.309 353.154 795.909 353.154C795.538 353.154 795.221 353.242 794.958 353.418C794.694 353.584 794.494 353.842 794.358 354.193C794.221 354.535 794.153 354.964 794.153 355.481C794.153 355.998 794.221 356.428 794.358 356.769C794.504 357.111 794.709 357.364 794.973 357.53C795.246 357.696 795.563 357.779 795.924 357.779C796.216 357.779 796.465 357.73 796.67 357.633C796.875 357.525 797.041 357.374 797.168 357.179C797.304 356.984 797.397 356.75 797.446 356.476L799.26 357.062C799.153 357.501 798.953 357.886 798.66 358.218C798.368 358.55 797.992 358.808 797.534 358.994C797.075 359.179 796.543 359.272 795.938 359.272C795.187 359.272 794.524 359.12 793.948 358.818C793.372 358.515 792.929 358.081 792.616 357.515C792.304 356.95 792.148 356.267 792.148 355.467C792.148 354.667 792.304 353.984 792.616 353.418C792.929 352.852 793.368 352.418 793.933 352.115C794.499 351.813 795.148 351.662 795.88 351.662ZM803.409 349.569V356.74C803.409 357.091 803.497 357.35 803.672 357.515C803.858 357.672 804.106 357.75 804.419 357.75C804.662 357.75 804.877 357.715 805.062 357.647C805.248 357.569 805.414 357.467 805.56 357.34L805.882 358.672C805.648 358.857 805.355 359.003 805.004 359.111C804.653 359.218 804.282 359.272 803.892 359.272C803.404 359.272 802.97 359.198 802.589 359.052C802.218 358.906 801.926 358.672 801.711 358.35C801.506 358.028 801.404 357.598 801.404 357.062V350.125L803.409 349.569ZM805.75 351.808V353.301H800.057V351.808H805.75ZM807.107 359.125V351.808H808.848L808.98 353.242C809.175 352.735 809.458 352.345 809.829 352.071C810.209 351.798 810.682 351.662 811.248 351.662C811.414 351.662 811.565 351.676 811.702 351.705C811.839 351.735 811.951 351.774 812.039 351.823L811.804 353.506C811.707 353.467 811.585 353.437 811.439 353.418C811.302 353.398 811.121 353.388 810.897 353.388C810.604 353.388 810.321 353.462 810.048 353.608C809.775 353.745 809.551 353.959 809.375 354.252C809.199 354.535 809.112 354.896 809.112 355.335V359.125H807.107ZM814.291 350.754C813.871 350.754 813.559 350.666 813.354 350.491C813.149 350.305 813.047 350.037 813.047 349.686C813.047 349.325 813.149 349.057 813.354 348.881C813.559 348.696 813.871 348.603 814.291 348.603C814.71 348.603 815.022 348.696 815.227 348.881C815.432 349.057 815.534 349.325 815.534 349.686C815.534 350.037 815.432 350.305 815.227 350.491C815.022 350.666 814.71 350.754 814.291 350.754ZM815.286 351.808V359.125H813.281V351.808H815.286ZM820.733 351.662C821.387 351.662 821.938 351.759 822.387 351.954C822.845 352.14 823.211 352.398 823.484 352.73C823.767 353.052 823.967 353.413 824.084 353.813L822.211 354.486C822.114 354.047 821.948 353.715 821.714 353.491C821.479 353.267 821.162 353.154 820.762 353.154C820.392 353.154 820.074 353.242 819.811 353.418C819.548 353.584 819.348 353.842 819.211 354.193C819.074 354.535 819.006 354.964 819.006 355.481C819.006 355.998 819.074 356.428 819.211 356.769C819.357 357.111 819.562 357.364 819.826 357.53C820.099 357.696 820.416 357.779 820.777 357.779C821.07 357.779 821.318 357.73 821.523 357.633C821.728 357.525 821.894 357.374 822.021 357.179C822.157 356.984 822.25 356.75 822.299 356.476L824.114 357.062C824.006 357.501 823.806 357.886 823.514 358.218C823.221 358.55 822.845 358.808 822.387 358.994C821.928 359.179 821.396 359.272 820.792 359.272C820.04 359.272 819.377 359.12 818.801 358.818C818.226 358.515 817.782 358.081 817.47 357.515C817.157 356.95 817.001 356.267 817.001 355.467C817.001 354.667 817.157 353.984 817.47 353.418C817.782 352.852 818.221 352.418 818.787 352.115C819.353 351.813 820.001 351.662 820.733 351.662Z" fill="white"/>
</g>
<defs>
<filter id="filter0_d_102_395" x="132.444" y="64.2251" width="249.521" height="183.665" filterUnits="userSpaceOnUse" color-interpolation-filters="sRGB">
<feFlood flood-opacity="0" result="BackgroundImageFix"/>
<feColorMatrix in="SourceAlpha" type="matrix" values="0 0 0 0 0 0 0 0 0 0 0 0 0 0 0 0 0 0 127 0" result="hardAlpha"/>
<feMorphology radius="1.46346" operator="erode" in="SourceAlpha" result="effect1_dropShadow_102_395"/>
<feOffset/>
<feGaussianBlur stdDeviation="13.537"/>
<feColorMatrix type="matrix" values="0 0 0 0 0.0666667 0 0 0 0 0.0941176 0 0 0 0 0.152941 0 0 0 0.05 0"/>
<feBlend mode="normal" in2="BackgroundImageFix" result="effect1_dropShadow_102_395"/>
<feBlend mode="normal" in="SourceGraphic" in2="effect1_dropShadow_102_395" result="shape"/>
</filter>
<filter id="filter1_d_102_395" x="402.453" y="64.2251" width="249.521" height="183.665" filterUnits="userSpaceOnUse" color-interpolation-filters="sRGB">
<feFlood flood-opacity="0" result="BackgroundImageFix"/>
<feColorMatrix in="SourceAlpha" type="matrix" values="0 0 0 0 0 0 0 0 0 0 0 0 0 0 0 0 0 0 127 0" result="hardAlpha"/>
<feMorphology radius="1.46346" operator="erode" in="SourceAlpha" result="effect1_dropShadow_102_395"/>
<feOffset/>
<feGaussianBlur stdDeviation="13.537"/>
<feColorMatrix type="matrix" values="0 0 0 0 0.0666667 0 0 0 0 0.0941176 0 0 0 0 0.152941 0 0 0 0.05 0"/>
<feBlend mode="normal" in2="BackgroundImageFix" result="effect1_dropShadow_102_395"/>
<feBlend mode="normal" in="SourceGraphic" in2="effect1_dropShadow_102_395" result="shape"/>
</filter>
<filter id="filter2_d_102_395" x="672.462" y="64.2251" width="248.789" height="183.665" filterUnits="userSpaceOnUse" color-interpolation-filters="sRGB">
<feFlood flood-opacity="0" result="BackgroundImageFix"/>
<feColorMatrix in="SourceAlpha" type="matrix" values="0 0 0 0 0 0 0 0 0 0 0 0 0 0 0 0 0 0 127 0" result="hardAlpha"/>
<feMorphology radius="1.46346" operator="erode" in="SourceAlpha" result="effect1_dropShadow_102_395"/>
<feOffset/>
<feGaussianBlur stdDeviation="13.537"/>
<feColorMatrix type="matrix" values="0 0 0 0 0.0666667 0 0 0 0 0.0941176 0 0 0 0 0.152941 0 0 0 0.05 0"/>
<feBlend mode="normal" in2="BackgroundImageFix" result="effect1_dropShadow_102_395"/>
<feBlend mode="normal" in="SourceGraphic" in2="effect1_dropShadow_102_395" result="shape"/>
</filter>
<filter id="filter3_d_102_395" x="132.444" y="231.792" width="249.521" height="183.665" filterUnits="userSpaceOnUse" color-interpolation-filters="sRGB">
<feFlood flood-opacity="0" result="BackgroundImageFix"/>
<feColorMatrix in="SourceAlpha" type="matrix" values="0 0 0 0 0 0 0 0 0 0 0 0 0 0 0 0 0 0 127 0" result="hardAlpha"/>
<feMorphology radius="1.46346" operator="erode" in="SourceAlpha" result="effect1_dropShadow_102_395"/>
<feOffset/>
<feGaussianBlur stdDeviation="13.537"/>
<feColorMatrix type="matrix" values="0 0 0 0 0.0666667 0 0 0 0 0.0941176 0 0 0 0 0.152941 0 0 0 0.05 0"/>
<feBlend mode="normal" in2="BackgroundImageFix" result="effect1_dropShadow_102_395"/>
<feBlend mode="normal" in="SourceGraphic" in2="effect1_dropShadow_102_395" result="shape"/>
</filter>
<filter id="filter4_d_102_395" x="402.453" y="231.792" width="249.521" height="183.665" filterUnits="userSpaceOnUse" color-interpolation-filters="sRGB">
<feFlood flood-opacity="0" result="BackgroundImageFix"/>
<feColorMatrix in="SourceAlpha" type="matrix" values="0 0 0 0 0 0 0 0 0 0 0 0 0 0 0 0 0 0 127 0" result="hardAlpha"/>
<feMorphology radius="1.46346" operator="erode" in="SourceAlpha" result="effect1_dropShadow_102_395"/>
<feOffset/>
<feGaussianBlur stdDeviation="13.537"/>
<feColorMatrix type="matrix" values="0 0 0 0 0.0666667 0 0 0 0 0.0941176 0 0 0 0 0.152941 0 0 0 0.05 0"/>
<feBlend mode="normal" in2="BackgroundImageFix" result="effect1_dropShadow_102_395"/>
<feBlend mode="normal" in="SourceGraphic" in2="effect1_dropShadow_102_395" result="shape"/>
</filter>
<filter id="filter5_d_102_395" x="672.462" y="231.792" width="248.789" height="183.665" filterUnits="userSpaceOnUse" color-interpolation-filters="sRGB">
<feFlood flood-opacity="0" result="BackgroundImageFix"/>
<feColorMatrix in="SourceAlpha" type="matrix" values="0 0 0 0 0 0 0 0 0 0 0 0 0 0 0 0 0 0 127 0" result="hardAlpha"/>
<feMorphology radius="1.46346" operator="erode" in="SourceAlpha" result="effect1_dropShadow_102_395"/>
<feOffset/>
<feGaussianBlur stdDeviation="13.537"/>
<feColorMatrix type="matrix" values="0 0 0 0 0.0666667 0 0 0 0 0.0941176 0 0 0 0 0.152941 0 0 0 0.05 0"/>
<feBlend mode="normal" in2="BackgroundImageFix" result="effect1_dropShadow_102_395"/>
<feBlend mode="normal" in="SourceGraphic" in2="effect1_dropShadow_102_395" result="shape"/>
</filter>
<clipPath id="clip0_102_395">
<rect width="29.2693" height="29.2693" fill="white" transform="translate(242.569 117.556)"/>
</clipPath>
<clipPath id="clip1_102_395">
<rect width="29.2693" height="29.2693" fill="white" transform="translate(512.578 117.556)"/>
</clipPath>
<clipPath id="clip2_102_395">
<rect width="29.2693" height="29.2693" fill="white" transform="translate(782.222 117.556)"/>
</clipPath>
<clipPath id="clip3_102_395">
<rect width="29.2693" height="29.2693" fill="white" transform="translate(242.569 285.123)"/>
</clipPath>
<clipPath id="clip4_102_395">
<rect width="29.2693" height="29.2693" fill="white" transform="translate(512.578 285.123)"/>
</clipPath>
<clipPath id="clip5_102_395">
<rect width="29.2693" height="29.2693" fill="white" transform="translate(782.222 285.123)"/>
</clipPath>
</defs>
</svg>
