<svg width="80" height="17" viewBox="0 0 80 17" fill="none" xmlns="http://www.w3.org/2000/svg">
<path d="M14.7875 1.60982L14.107 4.52943H9.43121L6.75307 16.0981H2.97733L5.65547 4.52943H0.935801L1.61631 1.60982H14.7875ZM13.067 16.0981L16.6891 0.468314H20.4209L18.7745 7.62466L18.4013 8.1515C18.5916 7.53685 18.877 6.98805 19.2575 6.50511C19.638 6.02216 20.1136 5.63434 20.6843 5.34165C21.2551 5.04896 21.9063 4.90261 22.6381 4.90261C23.3698 4.90261 23.9918 5.07091 24.504 5.40751C25.0308 5.7441 25.3967 6.21973 25.6016 6.83438C25.8211 7.44904 25.8357 8.18077 25.6455 9.02958L23.9991 16.0981H20.2673L21.7819 9.62228C21.9136 9.0369 21.8624 8.58322 21.6283 8.26126C21.3941 7.92467 21.0136 7.75637 20.4868 7.75637C20.0916 7.75637 19.7404 7.85149 19.4331 8.04174C19.1404 8.21736 18.8843 8.4881 18.6648 8.85397C18.4599 9.2052 18.2989 9.64424 18.1818 10.1711L16.7988 16.0981H13.067ZM32.6344 16.2957C31.5515 16.2957 30.6002 16.0908 29.7807 15.681C28.9611 15.2566 28.3245 14.6712 27.8709 13.9249C27.4172 13.1785 27.1904 12.3077 27.1904 11.3126C27.1904 10.0833 27.4391 8.99299 27.9367 8.04174C28.4489 7.07586 29.166 6.31485 30.088 5.75874C31.0246 5.20262 32.1369 4.92456 33.4247 4.92456C34.493 4.92456 35.4004 5.12945 36.1468 5.53922C36.9078 5.93435 37.4858 6.49779 37.881 7.22952C38.2761 7.96125 38.4737 8.8247 38.4737 9.81985C38.4737 10.0979 38.459 10.3906 38.4298 10.6979C38.4005 11.0053 38.342 11.3053 38.2541 11.598H29.6051V9.57838H35.8175L34.7857 10.1491C34.8443 9.94425 34.8809 9.76863 34.8955 9.62228C34.9101 9.47594 34.9174 9.33691 34.9174 9.2052C34.9174 8.8247 34.8516 8.51005 34.7199 8.26126C34.5882 8.01247 34.4052 7.82954 34.1711 7.71246C33.9369 7.58075 33.6589 7.51489 33.3369 7.51489C32.8101 7.51489 32.371 7.63929 32.0198 7.88808C31.6832 8.13687 31.4124 8.46615 31.2076 8.87592C31.0027 9.27105 30.8563 9.70277 30.7685 10.1711C30.6953 10.6394 30.6588 11.0931 30.6588 11.5321C30.6588 12.0004 30.7466 12.3955 30.9222 12.7175C31.1124 13.0395 31.3612 13.2883 31.6686 13.4639C31.9905 13.6249 32.3637 13.7053 32.7881 13.7053C33.315 13.7053 33.7394 13.5883 34.0613 13.3541C34.3833 13.1053 34.6321 12.798 34.8077 12.4321L37.881 13.6395C37.6322 14.1956 37.2444 14.6712 36.7175 15.0664C36.2053 15.4615 35.598 15.7688 34.8955 15.9884C34.2077 16.1932 33.454 16.2957 32.6344 16.2957ZM40.8232 16.0981V1.60982H47.8698C49.6552 1.62445 50.9723 1.96836 51.8211 2.64156C52.67 3.30012 53.0944 4.25869 53.0944 5.51727C53.0944 6.33681 52.8529 7.04659 52.3699 7.64661C51.887 8.23199 51.1479 8.60518 50.1528 8.76616V8.78811C51.265 8.93446 52.0919 9.32227 52.6334 9.95156C53.1895 10.5662 53.4675 11.3126 53.4675 12.1907C53.4675 13.4346 53.0285 14.4005 52.1504 15.0883C51.2723 15.7615 49.9552 16.0981 48.1991 16.0981H40.8232ZM44.4672 13.4419H47.5625C48.2503 13.4419 48.7625 13.3029 49.0991 13.0248C49.4357 12.7468 49.604 12.3443 49.604 11.8175C49.604 11.3053 49.4357 10.9175 49.0991 10.654C48.7625 10.376 48.2503 10.2369 47.5625 10.2369H44.4672V13.4419ZM44.4672 7.53685H47.2112C48.5576 7.53685 49.2308 7.01 49.2308 5.95631C49.2308 4.90261 48.5576 4.37576 47.2112 4.37576H44.4672V7.53685ZM60.7906 4.90261C61.9467 4.90261 62.9565 5.12945 63.8199 5.58312C64.698 6.02216 65.3785 6.6734 65.8615 7.53685C66.3591 8.38566 66.6078 9.41008 66.6078 10.6101C66.6078 11.8102 66.3591 12.8419 65.8615 13.7053C65.3785 14.5542 64.698 15.2054 63.8199 15.6591C62.9565 16.0981 61.9467 16.3176 60.7906 16.3176C59.6637 16.3176 58.6612 16.0981 57.7832 15.6591C56.9051 15.2054 56.2173 14.5542 55.7197 13.7053C55.2367 12.8419 54.9953 11.8102 54.9953 10.6101C54.9953 9.41008 55.2367 8.38566 55.7197 7.53685C56.2173 6.6734 56.9051 6.02216 57.7832 5.58312C58.6612 5.12945 59.6637 4.90261 60.7906 4.90261ZM60.7906 7.5588C60.3662 7.5588 60.0003 7.66124 59.693 7.86613C59.3857 8.07101 59.1515 8.40029 58.9905 8.85397C58.8295 9.30764 58.749 9.89302 58.749 10.6101C58.749 11.3272 58.8295 11.9126 58.9905 12.3663C59.1515 12.8053 59.3857 13.1346 59.693 13.3541C60.0003 13.559 60.3662 13.6614 60.7906 13.6614C61.2296 13.6614 61.6028 13.559 61.9101 13.3541C62.2175 13.1346 62.4516 12.8053 62.6126 12.3663C62.7736 11.9126 62.8541 11.3272 62.8541 10.6101C62.8541 9.89302 62.7736 9.30764 62.6126 8.85397C62.4516 8.40029 62.2175 8.07101 61.9101 7.86613C61.6028 7.66124 61.2296 7.5588 60.7906 7.5588ZM71.3339 5.12213L74.012 10.0613L75.2413 9.95156L79.5659 16.0981H75.2852L72.5193 11.0931H71.2241L67.0313 5.12213H71.3339ZM79.478 5.12213L75.3291 11.0492L73.9462 10.9614L71.0704 16.0981H66.8776L71.29 9.90766L72.5632 10.0833L75.2852 5.12213H79.478Z" fill="#2947A9"/>
</svg>
