<svg width="20" height="14" viewBox="0 0 20 14" fill="none" xmlns="http://www.w3.org/2000/svg">
<path fill-rule="evenodd" clip-rule="evenodd" d="M0.956042 7.06726C0.956042 7.25052 1.02762 7.42628 1.15504 7.55586C1.28246 7.68545 1.45527 7.75825 1.63546 7.75825L17.6603 7.75825L13.384 12.1059C13.3209 12.1702 13.2708 12.2464 13.2366 12.3304C13.2024 12.4143 13.1848 12.5043 13.1848 12.5951C13.1848 12.686 13.2024 12.776 13.2366 12.8599C13.2708 12.9438 13.3209 13.0201 13.384 13.0843C13.4472 13.1486 13.5222 13.1996 13.6047 13.2343C13.6873 13.2691 13.7757 13.287 13.8651 13.287C13.9544 13.287 14.0429 13.2691 14.1254 13.2343C14.2079 13.1996 14.2829 13.1486 14.3461 13.0843L19.7815 7.55648C19.8447 7.49229 19.8949 7.41604 19.9292 7.3321C19.9634 7.24815 19.9811 7.15815 19.9811 7.06726C19.9811 6.97638 19.9634 6.88638 19.9292 6.80243C19.8949 6.71849 19.8447 6.64223 19.7815 6.57805L14.3461 1.05018C14.2829 0.985936 14.2079 0.934974 14.1254 0.900205C14.0429 0.865436 13.9544 0.847541 13.8651 0.847541C13.7757 0.847541 13.6873 0.865436 13.6047 0.900205C13.5222 0.934974 13.4472 0.985936 13.384 1.05018C13.3209 1.11443 13.2708 1.19069 13.2366 1.27463C13.2024 1.35857 13.1848 1.44854 13.1848 1.5394C13.1848 1.63025 13.2024 1.72022 13.2366 1.80416C13.2708 1.8881 13.3209 1.96437 13.384 2.02861L17.6603 6.37628L1.63546 6.37628C1.45527 6.37628 1.28246 6.44908 1.15504 6.57866C1.02762 6.70825 0.956042 6.884 0.956042 7.06726Z" fill="white"/>
</svg>
