<svg width="20" height="14" viewBox="0 0 20 14" fill="none" xmlns="http://www.w3.org/2000/svg">
<path fill-rule="evenodd" clip-rule="evenodd" d="M19.6389 7.06726C19.6389 6.884 19.5673 6.70824 19.4399 6.57866C19.3125 6.44907 19.1397 6.37627 18.9595 6.37627H2.93465L7.21094 2.02861C7.27411 1.96436 7.32422 1.88809 7.3584 1.80415C7.39259 1.72021 7.41019 1.63025 7.41019 1.53939C7.41019 1.44853 7.39259 1.35857 7.3584 1.27463C7.32422 1.19069 7.27411 1.11442 7.21094 1.05017C7.14777 0.985929 7.07277 0.934968 6.99024 0.900199C6.9077 0.86543 6.81924 0.847534 6.72991 0.847534C6.64057 0.847534 6.55211 0.86543 6.46957 0.900199C6.38704 0.934968 6.31204 0.985929 6.24887 1.05017L0.813497 6.57804C0.750225 6.64223 0.700026 6.71848 0.665774 6.80243C0.631522 6.88637 0.613892 6.97637 0.613892 7.06726C0.613892 7.15815 0.631522 7.24814 0.665774 7.33209C0.700026 7.41604 0.750225 7.49229 0.813497 7.55647L6.24887 13.0843C6.31204 13.1486 6.38704 13.1995 6.46957 13.2343C6.55211 13.2691 6.64057 13.287 6.72991 13.287C6.81924 13.287 6.9077 13.2691 6.99024 13.2343C7.07277 13.1995 7.14777 13.1486 7.21094 13.0843C7.27411 13.0201 7.32422 12.9438 7.3584 12.8599C7.39259 12.7759 7.41019 12.686 7.41019 12.5951C7.41019 12.5043 7.39259 12.4143 7.3584 12.3304C7.32422 12.2464 7.27411 12.1702 7.21094 12.1059L2.93465 7.75824H18.9595C19.1397 7.75824 19.3125 7.68544 19.4399 7.55586C19.5673 7.42627 19.6389 7.25052 19.6389 7.06726Z" fill="white"/>
</svg>
